<svg xmlns="http://www.w3.org/2000/svg" xmlns:xlink="http://www.w3.org/1999/xlink" viewBox="0 0 695.8 220.42"><defs><style>.a{fill:#113653;}.b,.k{fill:none;stroke-linecap:round;}.b{stroke:#3ba836;stroke-linejoin:round;}.c,.d,.e,.f,.h,.i,.l{fill-rule:evenodd;}.c{fill:url(#a);}.d{fill:url(#b);}.e{fill:url(#c);}.f{fill:url(#d);}.g{fill:#3ba836;}.h{fill:#90d0e2;}.i{fill:#e59f4c;}.j,.l{fill:#fff;}.k{stroke:#113653;stroke-linejoin:bevel;stroke-width:8px;}.m{fill:url(#e);}</style><linearGradient id="a" x1="168.26" y1="108.7" x2="255.34" y2="108.7" gradientUnits="userSpaceOnUse"><stop offset="0.02" stop-color="#113653"/><stop offset="0.1" stop-color="#164350"/><stop offset="0.38" stop-color="#266e45"/><stop offset="0.64" stop-color="#318e3d"/><stop offset="0.85" stop-color="#38a138"/><stop offset="1" stop-color="#3ba836"/></linearGradient><linearGradient id="b" x1="214.78" y1="50.39" x2="216.24" y2="50.39" xlink:href="#a"/><linearGradient id="c" x1="214.74" y1="52.35" x2="216.03" y2="52.35" xlink:href="#a"/><linearGradient id="d" x1="214.71" y1="51.76" x2="216.61" y2="51.76" xlink:href="#a"/><linearGradient id="e" x1="736.17" y1="220.33" x2="664.45" y2="220.33" gradientUnits="userSpaceOnUse"><stop offset="0.24" stop-color="#3ba836"/><stop offset="0.43" stop-color="#2a7b42"/><stop offset="0.61" stop-color="#1d554b"/><stop offset="0.75" stop-color="#143e51"/><stop offset="0.84" stop-color="#113653"/></linearGradient></defs><path class="a" d="M271.7,256.33l-32.21-68.49a2.09,2.09,0,0,1-.25-.81c0-1.94,4.48-1.94,9-1.94,5,0,10,0,10.8,1.78l15.7,36.9,15.64-36.9c.82-1.78,5.76-1.78,10.8-1.78,4.49,0,9,0,9,1.94a2.15,2.15,0,0,1-.2.76l-32.16,68.54c-.56,1-1.93,1.07-3,1.07C273.53,257.4,272.21,257.35,271.7,256.33Z" transform="translate(-47.97 -38.74)"/><path class="a" d="M313.06,254.75V187.18a1.38,1.38,0,0,1,1.38-1.43l46.47-.05c2.19,0,2.25,4.18,2.25,8.41s-.06,8.51-2.25,8.51H330.54v9.84h25.12c2.09,0,2.14,3.72,2.14,7.39s-.05,7.44-2.14,7.44H330.54v12l30.32-.05c2.24,0,2.3,4.23,2.3,8.51s-.06,8.46-2.25,8.46H314.44A1.46,1.46,0,0,1,313.06,254.75Z" transform="translate(-47.97 -38.74)"/><path class="a" d="M429.49,256.69,391,219.49v35.06c0,2.14-4.33,2.14-8.71,2.14s-8.72,0-8.72-2.09V186.06c0-1.53,1.23-1.53,2.5-1.53s2.45,0,3.21.66l38.42,38V187.28c0-2.09,4.34-2.09,8.72-2.09s8.76,0,8.76,2.09v68.49c0,1.58-1.17,1.58-2.44,1.58S430.2,257.35,429.49,256.69Z" transform="translate(-47.97 -38.74)"/><path class="a" d="M464.18,254.6v-52H445.47c-2,0-2-4.23-2-8.51s0-8.41,2.09-8.41h54.84c2.09,0,2.09,4.18,2.09,8.41s0,8.51-2.09,8.51H481.65v51.93c0,2.14-4.38,2.14-8.76,2.14S464.18,256.69,464.18,254.6Z" transform="translate(-47.97 -38.74)"/><path class="a" d="M510.53,234.32v-47c0-2.09,4.38-2.09,8.72-2.09s8.76,0,8.76,2.14v41.84c0,6.37,4.54,10.24,11.26,10.24,6.07,0,11.26-3.41,11.26-10.24V187.28c0-2.09,4.44-2.09,8.77-2.09s8.77,0,8.77,2.14v47c0,12.48-10.81,22.93-28.8,22.93C520.67,257.25,510.53,246.34,510.53,234.32Z" transform="translate(-47.97 -38.74)"/><path class="a" d="M581.91,254.6V187.18a1.43,1.43,0,0,1,1.38-1.48h29.3c11.77,0,22.17,9.12,22.17,23.24,0,8.82-4.18,15.75-10.3,19.42L638.12,254a2.07,2.07,0,0,1,.25.87c0,1.83-4.07,1.83-8.1,1.83-4.64,0-9.27,0-10-1.53l-11.52-23h-9.32V254.6c0,2-4.38,2.09-8.77,2.09S581.91,256.64,581.91,254.6ZM616.31,209a6.33,6.33,0,0,0-6.32-6.37h-10.6v12.74H610A6.33,6.33,0,0,0,616.31,209Z" transform="translate(-47.97 -38.74)"/><path class="a" d="M271.7,256.33l-32.21-68.49a2.09,2.09,0,0,1-.25-.81c0-1.94,4.48-1.94,9-1.94,5,0,10,0,10.8,1.78l15.7,36.9,15.64-36.9c.82-1.78,5.76-1.78,10.8-1.78,4.49,0,9,0,9,1.94a2.15,2.15,0,0,1-.2.76l-32.16,68.54c-.56,1-1.93,1.07-3,1.07C273.53,257.4,272.21,257.35,271.7,256.33Z" transform="translate(-47.97 -38.74)"/><path class="a" d="M313.06,254.75V187.18a1.38,1.38,0,0,1,1.38-1.43l46.47-.05c2.19,0,2.25,4.18,2.25,8.41s-.06,8.51-2.25,8.51H330.54v9.84h25.12c2.09,0,2.14,3.72,2.14,7.39s-.05,7.44-2.14,7.44H330.54v12l30.32-.05c2.24,0,2.3,4.23,2.3,8.51s-.06,8.46-2.25,8.46H314.44A1.46,1.46,0,0,1,313.06,254.75Z" transform="translate(-47.97 -38.74)"/><path class="a" d="M429.49,256.69,391,219.49v35.06c0,2.14-4.33,2.14-8.71,2.14s-8.72,0-8.72-2.09V186.06c0-1.53,1.23-1.53,2.5-1.53s2.45,0,3.21.66l38.42,38V187.28c0-2.09,4.34-2.09,8.72-2.09s8.76,0,8.76,2.09v68.49c0,1.58-1.17,1.58-2.44,1.58S430.2,257.35,429.49,256.69Z" transform="translate(-47.97 -38.74)"/><path class="a" d="M464.18,254.6v-52H445.47c-2,0-2-4.23-2-8.51s0-8.41,2.09-8.41h54.84c2.09,0,2.09,4.18,2.09,8.41s0,8.51-2.09,8.51H481.65v51.93c0,2.14-4.38,2.14-8.76,2.14S464.18,256.69,464.18,254.6Z" transform="translate(-47.97 -38.74)"/><path class="a" d="M510.53,234.32v-47c0-2.09,4.38-2.09,8.72-2.09s8.76,0,8.76,2.14v41.84c0,6.37,4.54,10.24,11.26,10.24,6.07,0,11.26-3.41,11.26-10.24V187.28c0-2.09,4.44-2.09,8.77-2.09s8.77,0,8.77,2.14v47c0,12.48-10.81,22.93-28.8,22.93C520.67,257.25,510.53,246.34,510.53,234.32Z" transform="translate(-47.97 -38.74)"/><path class="a" d="M581.91,254.6V187.18a1.43,1.43,0,0,1,1.38-1.48h29.3c11.77,0,22.17,9.12,22.17,23.24,0,8.82-4.18,15.75-10.3,19.42L638.12,254a2.07,2.07,0,0,1,.25.87c0,1.83-4.07,1.83-8.1,1.83-4.64,0-9.27,0-10-1.53l-11.52-23h-9.32V254.6c0,2-4.38,2.09-8.77,2.09S581.91,256.64,581.91,254.6ZM616.31,209a6.33,6.33,0,0,0-6.32-6.37h-10.6v12.74H610A6.33,6.33,0,0,0,616.31,209Z" transform="translate(-47.97 -38.74)"/><polyline class="b" points="695.3 217.92 695.3 212.24 640.72 140.93 640.72 144.75"/><polyline class="b" points="586.17 215.81 586.17 212.17 640.68 140.87 640.68 144.69"/><path class="c" d="M252.66,51.09a3.55,3.55,0,0,0-4.31,2.57L240.4,85l.5-2.2a7.28,7.28,0,0,0-1.46-2.56l.43-.32s.15-.1.1-.23-.61-1-.61-1-.09-.19-.42-.05c0,0-.22.09-.35-.25a7.13,7.13,0,0,0-.92-1.58c-.37-.54-1.35-7.45-2.94-10.78,0,0-.56-4.79-3-7.42S228.5,56,228.5,56l.07-1.12a13,13,0,0,0-4.49-3,10.81,10.81,0,0,0,1.46-3.63l.48-.59a3.54,3.54,0,0,0,.44-2.3l-.11-.31v-.06a2.15,2.15,0,0,1-1.2.25,1.92,1.92,0,0,0,1.13-1A6.81,6.81,0,0,0,221,38.79a6.71,6.71,0,0,0-4.5,1.14s-.86.5-2.26,3.09l-.11.18A22.94,22.94,0,0,1,222,45.52l-.85.32a19.06,19.06,0,0,0-7.4-2.12,4.79,4.79,0,0,0-.89,3.59,3,3,0,0,0,.66,1.37s.88.47,1.95-.78c0,0,.48-.46.86.38.47,1,.67,3,4.92,1.55,0,0,0,2.58-1.85,3.44s-4.12,1.76-4.88-.19c-.26-.65-.49-1.23-.67-1.76a19,19,0,0,0-4.14.36l.2,4-.53-3.41c-.45.2-3.83,2-1.95,8.83a13.12,13.12,0,0,0,.06,8.2l-.31,1.1s-1.8,3.63-2.15,4.53-.14.88-2,2.63c0,0-.8.83-.84,1.33,0,0-1.24,1.59-.79,3a.9.9,0,0,0,.21.31c.08.06.19.12.24.1s.14-.14.24-.14.25.3.31.42a.67.67,0,0,0,.24.26.44.44,0,0,0,.38-.1.82.82,0,0,0,.2-.49s.38-1.57,1.14-2l.81-.66a1,1,0,0,1-.11,1.49,1.3,1.3,0,0,0-.36,1.15.55.55,0,0,0,.65.37,6.87,6.87,0,0,1,.87-1.25,8.75,8.75,0,0,0,1.46-4.32s2.71-3.43,2.89-2.94c0,0,.86,2-1.88,6.84s-1.52,7.52-1.55,8.29.42,5.54.12,6.94a10.38,10.38,0,0,1-1.44,4.25s-1,8.41-2.13,11.84a2.06,2.06,0,0,1-.8,2.2s.06-.82.07-1.75c-.69-.6-3-2.54-4.06-3.64s-1.8-1.32-2.49-1.25L171.64,52.9a3.28,3.28,0,0,0-.82-.6,1.78,1.78,0,0,0-2.12.61c-1,1.37,0,3.4.62,4.72L219.56,167l-1.85,7.29a3.54,3.54,0,1,0,6.87,1.75L255.23,55.41A3.56,3.56,0,0,0,252.66,51.09ZM228.17,67c.81.74,2.1,1.28,2.9,3.36a23.85,23.85,0,0,0,3.34,6.72s-.31,1.53,1.22,3.84a1.3,1.3,0,0,1-.1.25,4.18,4.18,0,0,0-.16.7,6.85,6.85,0,0,0-.07,1.1,6.13,6.13,0,0,0,.19,1.48,7.37,7.37,0,0,0,.75,1.61,1,1,0,0,0,.39.41c.11.06.26.1.34,0a2,2,0,0,0,.05-1.08,3.75,3.75,0,0,1,0-.67c0-.1,0-.38.14-.41s.12.06.17.1A3.91,3.91,0,0,1,238,86s.25,3,1.2,2.88a.37.37,0,0,0,.19,0L233.26,113c.12-2.66.08-8.31-2.14-11.68,0,0-.53-.27-.35-3.22.13-2.29.37-4.56.31-6.87a30.53,30.53,0,0,0-1.64-10.12,35.27,35.27,0,0,1-1.9-6.12,45.61,45.61,0,0,1-.6-4.94c0-.6-.07-1.2-.1-1.79a9.7,9.7,0,0,0,0-1.87S226.81,65.74,228.17,67Zm-4.66-20.76a.38.38,0,0,1,.29-.14l1.47,0a.45.45,0,0,1,.38.51.44.44,0,0,1-.4.49l-1.47,0a.46.46,0,0,1-.39-.5A.6.6,0,0,1,223.51,46.23ZM211.77,57.78c2.75,0,5.47,2.31,5.47,2.31.74-1.36,7.24.15,7.24.15l-.18,4.91a16.86,16.86,0,0,1-13.19-1.94A12.25,12.25,0,0,1,211.77,57.78Zm9.06,104.15-16.3-36.13.36-.11a4.88,4.88,0,0,0,2.37-2.37c.38-.89.73-1.51,1.09-2.41l-.43-.45s3.59-6.1,4.05-10.37,1-10.3,1.78-11.76,4.23-12.59,5.34-10.62,4,11.27,4.49,13.28c0,0,2.66,10.23,2.91,18.06,0,0,.09,6.21,2.41,10.29l1.91-6.68Z" transform="translate(-47.97 -38.74)"/><path class="d" d="M216.23,50.68a2.17,2.17,0,0,1-.57,0c-.26-.08-1.09-.75-.83-.68C215.61,50.26,216.33,50.23,216.23,50.68Z" transform="translate(-47.97 -38.74)"/><path class="e" d="M216,52.46a2.82,2.82,0,0,0-.93.28l-.36-.79S216.05,52.16,216,52.46Z" transform="translate(-47.97 -38.74)"/><path class="f" d="M216.61,52.12s-1-.32-1.25-.38a1.44,1.44,0,0,0-.65-.11S215,50.88,216.61,52.12Z" transform="translate(-47.97 -38.74)"/><path class="g" d="M241.43,169.17l13.69-62.32a1.88,1.88,0,0,1,1.76-1.4l44.67.19c1.32,0,1.17,2,1,4.06-.46,6.23-2.77,12.39-4.67,12.38L269.5,122l-1.72,8.1,23.36.1c1.37,0,1.24,1.71,1.11,3.5-.4,5.42-2.56,10.92-4.32,10.91l-23.36-.1-2.14,9.7,28.4.13c1.37,0,1.22,2,1.07,4.06-.46,6.22-2.78,12.48-4.69,12.47l-44.62-.2A1.24,1.24,0,0,1,241.43,169.17Z" transform="translate(-47.97 -38.74)"/><path class="g" d="M352.74,171.55l-28.31-34.5-7.07,32.27c-.49,2.07-4.79,2.05-9.19,2s-8.7,0-8.55-2.07l13.9-63.2c.31-1.51,1.58-1.51,2.85-1.5s2.54,0,3.12.67l28.05,35.35,7.29-33.21c.49-2,4.84-2,9.18-1.94s8.7,0,8.56,2l-13.85,63.16c-.41,1.6-1.63,1.6-2.9,1.59S353.32,172.21,352.74,171.55Z" transform="translate(-47.97 -38.74)"/><path class="h" d="M231.51,217.65l-3.38-5.22c-3.38-2.09-3.63-2.4-7.34-10.11l-63.41-96.53a8.75,8.75,0,0,0-7.09,0L85.91,201c-3.38,5.39-5.52,6.68-7.89,11.3l-3.86,5.31Z" transform="translate(-47.97 -38.74)"/><path class="i" d="M150.67,185.83h21.44a17.13,17.13,0,1,0-21.44,0Z" transform="translate(-47.97 -38.74)"/><path class="j" d="M166.92,231.19a38.21,38.21,0,0,0-6,0,38.4,38.4,0,0,1-6,0,16.81,16.81,0,0,0,6,.95C163.54,231.89,164.14,231.43,166.92,231.19Z" transform="translate(-47.97 -38.74)"/><path class="a" d="M78,212.34l56.83-49.15a1.58,1.58,0,0,1,2.31.27l8.24,11.32a1.57,1.57,0,0,0,2.55,0l4-5.58a1.57,1.57,0,0,1,2.59,0L165,184.82a1.57,1.57,0,0,0,2.51.13l12.64-15.07a1.58,1.58,0,0,1,2.24-.17l42.42,36.91a1.55,1.55,0,0,1,.33.39l14.67,25.09a1.57,1.57,0,0,1-1.35,2.37l-170.52,1a1.57,1.57,0,0,1-1.39-2.33l11.11-20.37A1.66,1.66,0,0,1,78,212.34Z" transform="translate(-47.97 -38.74)"/><path class="j" d="M114.47,185.44l19.36-16.94a2.6,2.6,0,0,1,3.83.45l8.08,11.35-3.57-.77a.26.26,0,0,0-.2.05L132.05,188a.23.23,0,0,1-.38-.22l1.25-9.33-7,17.58a.23.23,0,0,1-.45-.11l1.64-13a.61.61,0,0,0-1.19-.28l-3.79,10.87a.25.25,0,0,1-.3.15l-2.8-.94a.24.24,0,0,0-.24.06l-9.44,10a.24.24,0,0,1-.4-.22l2.53-9.87a.23.23,0,0,0-.32-.27L98.6,198.15a.23.23,0,0,1-.24-.4l16.1-12.3Z" transform="translate(-47.97 -38.74)"/><path class="j" d="M133.78,201.31l19.3-29.21a.23.23,0,0,1,.38,0l11.92,16.84-2.6-.71a.24.24,0,0,0-.3.23v2.85l-5.15-4.17a.23.23,0,0,0-.38.18l0,12.48a.24.24,0,0,1-.47,0l-3.5-18.51a.23.23,0,0,0-.46,0l-1.39,13.54a.23.23,0,0,1-.43.1l-4.59-7.11a.24.24,0,0,0-.37,0Z" transform="translate(-47.97 -38.74)"/><path class="j" d="M163.27,195,181,173.84a.23.23,0,0,1,.33,0L201.61,191a.21.21,0,0,1,.08.22L200,200.58a.23.23,0,0,1-.4.12l-5.14-5.6a.23.23,0,0,0-.4.12l-1.43,11.39a.23.23,0,0,1-.44.08l-3.34-6.48a.23.23,0,0,0-.44.12l-1.49,5.35L184,189.29a1.17,1.17,0,0,0-2.28.07l-1.58,9.28a.23.23,0,0,1-.42.1l-7.31-10.15a.25.25,0,0,0-.33-.05Z" transform="translate(-47.97 -38.74)"/><polygon class="h" points="24.2 180.31 5.17 219.07 202.62 219.07 185.55 180.31 24.2 180.31"/><path class="j" d="M214.79,229.92a49.3,49.3,0,0,0-7.73,0,49.7,49.7,0,0,1-7.76,0s4.38,1.57,7.75,1.24S211.19,230.23,214.79,229.92Z" transform="translate(-47.97 -38.74)"/><path class="j" d="M207.05,233a48,48,0,0,0-7.74,0,49.55,49.55,0,0,1-7.75,0s4.38,1.56,7.74,1.23S203.44,233.34,207.05,233Z" transform="translate(-47.97 -38.74)"/><path class="j" d="M225,235.85a49.41,49.41,0,0,0-7.74,0,48.22,48.22,0,0,1-7.75,0s4.38,1.57,7.75,1.24S221.38,236.16,225,235.85Z" transform="translate(-47.97 -38.74)"/><path class="j" d="M191.87,244.73a50.39,50.39,0,0,0-7.93,0,49.22,49.22,0,0,1-7.94,0s4.49,1.61,7.94,1.27S188.18,245.05,191.87,244.73Z" transform="translate(-47.97 -38.74)"/><path class="j" d="M99.93,236a46.82,46.82,0,0,0-8.54,0,45.93,45.93,0,0,1-8.55,0s4.83,2,8.54,1.6S96,236.36,99.93,236Z" transform="translate(-47.97 -38.74)"/><path class="j" d="M108.54,240.45a62.61,62.61,0,0,0-10,0,64.18,64.18,0,0,1-10,0s5.65,2,10,1.59S103.89,240.84,108.54,240.45Z" transform="translate(-47.97 -38.74)"/><path class="g" d="M229.16,218.22l-.07-.21a.68.68,0,0,0,0-.45l-.23.25c0-.1,0-.16,0-.28.23,0,.09-.49.26-.57s0-.34.06-.5-.17-.26-.32-.17v-.63c.07-.13.12-.24.18-.34a1.52,1.52,0,0,1-.08-.22c-.16.14-.25.39-.39.5s-.11.21-.16.32c0,0,0-.13-.1-.24a4.7,4.7,0,0,0,.35-.43c.11-.16.2-.37.3-.55-.05-.17-.09-.31-.14-.46-.16.11-.18.5-.35.59-.11-.26.16-.41,0-.62l-.24-.1.4-.5-.12-.24a1,1,0,0,0,0-.59l-.1.31h-.24l0-.14-.24,0v-.05l.25-.16v-.25c.06-.1.12-.18.2-.32-.17,0,0-.23-.13-.3s.05-.25-.06-.35c0,.2-.09.39-.13.57l0-.16-.12.13v.54l-.13-.18a6.21,6.21,0,0,0-.06-1.24,3.7,3.7,0,0,1,0-.58c-.14-.11-.13-.34-.12-.58l-.16-.05c0,.17,0,.3,0,.42a1.59,1.59,0,0,0-.13.13c.06.24-.1.46,0,.7a1.75,1.75,0,0,0,0,.72l-.15.1c0,.15,0,.27-.05.42,0-.2-.1-.37-.15-.56l-.08,0c0,.07,0,.13-.05.19a2.36,2.36,0,0,0-.12-.26c0,.29,0,.49,0,.72l.24.1-.12.1v.21c.1.23.3.23.31.6H227l-.14-.21-.17,0-.12-.36c0,.25,0,.41,0,.57l-.07.08c0,.07,0,.12.06.17s-.05.08-.07.13l.09.15-.13,0v-.42l0,0-.06-.21,0,.12-.15.09c0,.07,0,.15,0,.16,0,.19,0,.33-.08.47l-.05-.1c0,.07-.07.13-.1.2l.1.15a2.31,2.31,0,0,1-.1.28h-.24l-.1-.16c-.18,0-.35,0-.48-.3l.51-.11c0-.16.17-.16.16-.39l-.32-.05a3.63,3.63,0,0,0,.06-.38,1.05,1.05,0,0,0,0-.24l-.27.44-.15-.45.26-.16.26-.56c-.12-.15-.25,0-.35-.1a2.53,2.53,0,0,1,0-.28c-.12,0-.2.22-.31.12a.92.92,0,0,0,.34-.54H225l.07-.21-.13-.05.07-.27-.18,0-.11-.22.06-.16-.07-.4-.18-.35-.07,0a3.26,3.26,0,0,1-.06.62l-.15-.16,0,.12.14.26-.14.17.08.14,0,0-.21-.15c-.05.2.06.25.12.4l-.35-.07v.17l.13.1c0,.09,0,.16,0,.23a.63.63,0,0,0,.06.2c-.15,0-.22-.27-.36-.17a1,1,0,0,0,.25.61l-.16.18-.43-.24.24-.21-.29-.08c0-.15-.07-.29-.11-.45l-.14.08,0,.38-.27,0,.22.37c0,.13-.09.23-.2.19l-.23-.17c-.1.2.17.18.12.33s-.26,0-.38,0l-.06.11.28.11c0,.06-.07.1-.1.15s.18.1.07.22c-.3-.21-.3-.21-.5-.17l.24.36.15.06a2.18,2.18,0,0,0-.65.6l.09.06.15-.1,0,.16c.23,0,.34-.24.56-.2,0,.18-.12.26-.2.36l-.6.2.13-.21c-.09-.13-.21,0-.32-.06l0-.11a2.77,2.77,0,0,1-.19-.26l-.3-.11.19-.27H221c0-.16-.07-.31-.11-.48l-.21,0V213h0l-.1.21-.41.19-.12-.19c.16-.1.32-.18.37-.41l-.18,0,.31-.17a1.25,1.25,0,0,1,0-.35s0,0,0-.1l-.18.11-.05-.16h-.13c0,.11,0,.21-.05.3H220v-.23h-.24c.05-.16.09-.31.13-.45l-.09-.1v-.48c-.11-.21-.19-.38-.29-.56l-.09.09-.07.38-.15.05.11.19c-.05.19-.11.41-.17.68s0,.31,0,.5H219c0-.15,0-.29-.17-.34l0,.07c-.07-.26-.13-.36-.22-.34s0,.15,0,.22l-.12.1.07.08-.09.12.22.2,0,.13.27.17h-.24l-.06.23-.2-.19c.08-.32.08-.32-.08-.52,0-.25-.13-.5.07-.71l-.18,0c0-.16-.09-.32-.14-.49l-.13,0c0,.12,0,.22,0,.32l-.15.08c0,.1,0,.2,0,.3a.86.86,0,0,0-.1.16l.11.21a1,1,0,0,1-.16.15c0,.2.22.29.14.48h-.24V213l-.13.12c-.06-.16,0-.33-.18-.44l-.14.21-.18-.13,0,.49.34.19-.19,0v.12a2.31,2.31,0,0,0,.29.24.5.5,0,0,1,.22.31s0,0,0,.06l-.17-.1-.11.14c0-.07,0-.14-.05-.21l-.27,0c-.07-.1-.13-.19-.23-.31v.39a.41.41,0,0,0-.08.46l.22.08,0,0,.41.4-.21.2-.22-.3-.15.12c-.31-.18-.58-.44-.95-.42l-.19-.23.1-.06.2.16c0-.13,0-.26.16-.31l.38.32,0-.33.2-.26c-.09-.11-.14,0-.18,0l-.84-.35c0-.1,0-.18-.07-.29l.47.23.31-.18-.51-.46.26-.41h-.23l-.22.17,0,0,.09-.18-.08-.14a.24.24,0,0,0,.26-.2h-.44c.09-.1.23-.14.14-.29l-.24.17a.26.26,0,0,1-.1-.07.38.38,0,0,1,0-.13l.18-.27-.09-.09-.13.14-.1-.51h0l-.13.46-.2,0,.13.19-.24.2s0,0,0,.06l.23,0-.09.11c-.11,0-.2-.12-.31,0l.07.17-.23-.14-.12.14.08.08-.34.24c0-.08,0-.15-.07-.24.12-.11.24-.2.36-.32s0-.1,0-.14l-.4-.18-.12.08a.14.14,0,0,0-.07-.13l.29,0-.39-.21.18-.27-.25,0a1,1,0,0,0-.12-.48c-.21.08-.08.3-.17.43l-.19,0v.15l.16.09v.25l-.13.07-.1-.09a1.85,1.85,0,0,0,0-.23s-.05,0-.09-.09l-.17.09c0,.12,0,.24-.07.34l-.28.19.12.25-.05,0-.24-.08a1.14,1.14,0,0,1-.09.19c-.18,0-.07-.31-.28-.29-.06.22-.12.44-.18.68,0-.07,0-.12-.06-.16l-.13-.06c0-.12,0-.23,0-.35l-.22.05c-.07-.18,0-.29.09-.41s.1-.23,0-.33l-.2.09,0,0,.17-.26c0-.11,0-.23-.09-.3l.1-.3-.24-.22h0l-.18-.43-.15.05a.63.63,0,0,1-.31.66l.13.21c0,.15,0,.32-.09.44l0,.2,0,0h0v0l-.16.22.05,0v.32l-.11,0,0,.07v-.09l-.15-.06,0,.11,0-.05-.17.11a1.2,1.2,0,0,1-.13-.31c0-.11-.06-.22-.22-.25l.08.41-.1.12,0,.12-.16.07a1,1,0,0,0,.47.34l-.2.07-.22.19.07.08h-.35l-.06.13c-.11,0-.15.1-.18.17l.12.31h-.26l-.09-.12c-.29,0-.32,0-.38-.26l.4,0c-.15-.29-.31-.53-.45-.79l.2-.19v-.69l-.17-.31-.26.07c-.19-.17-.19-.17-.42,0l-.06-.15.3,0-.33-.22.18-.23h-.26c-.09-.16.05-.39-.19-.51,0,.17,0,.31-.06.47l-.21-.05s0,.05-.08.11l.19.13c0,.2,0,.31-.14.32l-.22-.19,0,0a1.72,1.72,0,0,1,.07.21c-.12,0-.27-.05-.36.13l.24.18-.09.18a.25.25,0,0,0-.35,0l.26.44-.18.15s0-.11,0-.19l-.12,0c0-.11,0-.22,0-.34h-.14c0,.09,0,.16,0,.26l-.14-.14c-.06.12-.06.12-.25.11l0,0s0,0-.06.08v-.26c.05-.07.13-.07.21-.07l.07-.14,0-.16-.18,0,.37-.1-.09-.2c.12-.06.13-.17.11-.29h-.12l-.1.17-.18-.26-.23.06.14,0-.13.4,0-.12-.14,0,0-.17c-.07-.09-.21.07-.25-.1l.15-.18v-.19l-.11-.12c0-.14,0-.25,0-.36s0-.24-.2-.28v-.21l-.15-.12-.11.11,0,.17-.12,0-.11-.07c0,.12.08.09.12.13v0l-.14,0c-.16.15.15.24.05.38l-.09-.06c-.1.29-.39.38-.66.5l-.07-.12-.14.08.06.23-.09.18c-.17,0-.18,0-.28.15l.15,0,.09.1.41.09-.31.06.28.19-.18.13-.37,0-.18-.11-.16.14.19.31h-.19v0h-.06c0,.11,0,.21,0,.31l-.17.1v.11h-.08c0,.07,0,.13,0,.19s-.14.11-.15.19l-.18,0a1.54,1.54,0,0,1-.14.13l-.17-.23.3,0a2.09,2.09,0,0,1,0-.25h-.47l.19-.11,0-.12c-.17-.08-.23.09-.35.13s-.05-.21-.05-.32l.18-.16-.13-.17-.15.11c0-.2,0-.41-.18-.53l-.16.12v.45l-.33,0c.08.13.18.21.16.29l-.39.38h-.19v-.07l-.28,0v-.09l-.25,0-.05-.28.34.17s0,0,0,.07h.29l.07-.14.18.12h0s0-.08,0-.12a2.42,2.42,0,0,0-.74-.48l.26-.11.17-.33h-.24l-.17.12-.16-.25c.13,0,.27,0,.33-.18a.74.74,0,0,1-.47-.08l.22-.13c-.21-.12-.4.09-.59,0v-.14l.2-.17s0-.07.06-.14l-.33,0V210c-.09,0-.12-.15-.23-.11s0,0,0,0h0l-.07.14-.18,0V210l.17.1a1.14,1.14,0,0,0-.44.23l.1.13-.26-.08-.11.08.35.22-.05,0-.08.11-.16-.1,0,.19c-.07,0-.21,0-.25.08h-.09v.09l.33.23-.26.05c.08.14-.21.12-.18.24h.23l0,.14c-.12.08-.26,0-.37.08s0,0,.06.05l-.06,0a.52.52,0,0,0-.3.05l.29.09c-.07.11-.27.09-.31.21l.08,0,.55-.25,0,.08h.13a.31.31,0,0,0,0,.08.28.28,0,0,0,0,.09l-.14.05-.16,0h-.15l0,.11-.13.14-.12,0,0,.15H197l-.18.14a.59.59,0,0,1-.2,0l-.11.1-.23-.06v-.17c.08,0,.19-.05.22-.15l-.05,0-.22.07c0-.1,0-.17,0-.25s0-.08-.16-.07l-.08.34-.24,0v.06l.18.11-.18.1c-.05,0-.14.05-.14.08s-.11,0-.15.1l0,.11-.27,0-.11.07.54.32c0,.06-.09.12-.14.17s-.17-.15-.31-.16.1.14,0,.22H195l.1-.14a.18.18,0,0,0-.17-.12l-.16.2-.17-.13-.12.1V214h0v-.4l-.11,0-.34-.07a1.68,1.68,0,0,0,.49-.17l-.26,0a2.78,2.78,0,0,0,.46-.21c-.13-.07-.25,0-.42,0l.31-.09c.05-.06,0-.1-.06-.13l.07-.22h-.12l-.18.37-.1-.14-.16.12v.26l-.19-.08c0-.06,0-.17-.06-.24l.12-.21-.16-.11a.78.78,0,0,0-.09-.42l.1,0,0-.12h-.17c.06-.08,0-.13-.07-.18s0-.17-.15-.16l-.05.22-.21.11c0,.07.05.13.07.2l-.08,0a.11.11,0,0,0,0,.16l0,.1H193l0,.08-.16.1c0,.08.07.15.1.22h0l-.1.05a.17.17,0,0,0,0,.14h0v0h-.06l-.08-.24a.8.8,0,0,0,0-.46l-.11-.05.11-.3-.15-.2.1-.19a3.54,3.54,0,0,0-.29-.28l0-.35a.26.26,0,0,0-.27-.06c0,.2-.07.39-.1.59l-.12,0-.17.29.14.19-.14.25c.07.3-.17.59,0,.86,0,.13-.05.25-.07.37l-.16.06c0-.15,0-.28,0-.43l-.24,0-.07-.07-.05,0a.56.56,0,0,0-.26-.47,1,1,0,0,0,0,.28c0,.09,0,.18-.06.25h-.42l-.09-.12c-.29,0-.32,0-.38-.26l.4,0c-.15-.29-.31-.53-.45-.79l.2-.19v-.69c-.05-.08-.11-.19-.17-.31l-.26.06c-.19-.16-.19-.16-.42,0l-.06-.15.3,0-.33-.22.18-.24H189c-.09-.15.05-.38-.19-.5,0,.17,0,.31-.06.47a.91.91,0,0,0-.21-.05s0,.05-.08.11l.19.13c0,.2,0,.31-.14.32l-.22-.19-.05,0a1.72,1.72,0,0,1,.07.21c-.12,0-.27,0-.36.13l.24.18-.09.17a.26.26,0,0,0-.35,0l.26.44a2.15,2.15,0,0,0-.29.25c-.08.09-.23.15-.18.33a1.21,1.21,0,0,0,.37,0,1.51,1.51,0,0,0,.4-.18c-.08.15-.14.26-.2.35l-.45.11-.25.18h0v-.16h-.12l0,.09s0,0-.05,0l0,0v.06l-.12-.13c-.05.11-.05.11-.22.1l0,0,0,.07v-.22c0-.06.11-.06.18-.06l.06-.12,0-.15-.16,0,.32-.08-.08-.18c.11-.05.11-.15.1-.25h-.1L187,212l-.15-.23-.2.06.12,0-.11.35,0-.11-.12,0,0-.15c-.07-.07-.19.06-.22-.09l.13-.15v-.17l-.1-.1c0-.12,0-.22,0-.31a.19.19,0,0,0-.17-.24v-.19l-.13-.1-.1.1,0,.14-.11,0-.1-.06c0,.11.07.09.11.12h0l-.12,0c-.14.14.13.22,0,.34l-.07-.06c-.09.26-.35.33-.58.44l-.06-.11-.12.07c0,.07,0,.13.05.2s-.05.1-.08.16-.15,0-.24.12l.13,0,.07.08.36.09-.26,0,.24.17-.16.11-.32,0-.15-.1-.15.13.17.27h-.16V213l.43.29-.29.06v.13c.1.09.18.18.12.32a1.58,1.58,0,0,1-.39-.47h-.14c0,.06,0,.11,0,.16l0,.05v0l-.24,0-.13.13-.18-.23.3,0c0-.08,0-.15,0-.24h-.47l.19-.11,0-.12c-.16-.08-.23.08-.34.13-.1-.1-.06-.21-.05-.32a1.37,1.37,0,0,1,.18-.16l-.14-.17-.15.11c-.05-.2,0-.42-.17-.54l-.17.13v.45l-.32-.06c.07.13.17.22.16.3l-.16.15a1.72,1.72,0,0,0-.51-.33l.22-.09.14-.28-.21,0-.14.11-.14-.22c.11,0,.23,0,.29-.15a.69.69,0,0,1-.41-.07l.19-.11c-.18-.11-.35.07-.51,0v-.12l.17-.14s0-.06.05-.12l-.28,0v-.25c-.09,0-.1-.14-.22-.09l0,.43-.26-.1h0l.06.15.13.08-.3.14-.18.25h-.31v.08l.54.37-.14.14c-.1-.07-.15-.2-.31-.13l0,.19c-.1.06-.23,0-.32.07a.64.64,0,0,0,.42.22.44.44,0,0,0,0,.1s0,.08,0,.11l-.37.07a1,1,0,0,0,0,.15l-.23.1,0,.13h.13l.1-.11.09.13.21-.16,0,.05,0,0-.07.07.13.05-.06.1-.6.06-.06.09-.39,0,0,.14.36.07-.23.12-.16.1c-.05,0-.05.09,0,.13a1.6,1.6,0,0,0,.67-.35l0,.18h.18c0-.14.06-.21.19-.25s.14.05.12.13l-.27.15c-.13.17-.33.17-.54.17l-.12.12.07.05-.21.2,0,.15h.12l.11-.1h.07l-.1.13-.17.07-.14.16-.47-.12a0,0,0,0,1,0,0l.06,0s0,0,0,0a.19.19,0,0,0,0-.08l.17.13v-.19c.12,0,.11.15.26.08s-.15-.17-.21-.26-.24-.1-.26-.23l.23.15.06-.07a.77.77,0,0,1-.13-.12l-.11-.15a1,1,0,0,1-.33-.08.66.66,0,0,1-.27-.2h.18l.16.14.1-.09.46.2c0-.13-.19-.12-.2-.23l.21-.06v0l-.24,0c-.1-.11-.28-.09-.44-.1l-.1-.07c0-.06.06-.11.09-.16l.15.08.07,0c.05,0,.09.09.17,0s-.21-.15-.31-.21l-.38-.15v0h.24l.25-.1v-.07l-.21,0s0-.08,0-.15l-.19.13-.12-.14a.65.65,0,0,0,.37-.24h-.19a.67.67,0,0,0-.35-.23l.12-.13h-.21a2,2,0,0,1,0-.25l-.12,0,0,.2-.23,0,.19.18-.09.12-.19-.09c-.1.07.05.09,0,.14h-.22l-.08,0,.14.08.05.18-.28-.11-.05.08.18.17c-.11.11-.3.16-.36.29l0,0,0,0,.15.06.3-.11v.13l-.22.11v0l-.43.11s-.09-.09-.16,0l.2.13-.07.1.05,0,.3-.17c0,.08,0,.13.06.2l.11-.05.1,0,0,.1a4,4,0,0,0-.86.29.75.75,0,0,1-.07-.12l-.17.09-.13-.07.18-.19h-.19l0-.19-.12,0,0,.23h-.27l-.54.34-.06-.11.35-.17.3-.25c-.07-.07-.07-.15-.18-.19s-.16.21-.32.26c0-.1,0-.16.12-.23l-.12-.07-.09.05-.05-.07.29-.19s0,0,0,0l-.13,0v-.09l.05,0,.07,0c0-.08,0-.09-.12-.07l-.12.12-.06-.08H175l-.07-.05-.23,0,.26-.12-.1-.06.27-.1-.15,0,.08-.05-.09-.08.08-.09-.08,0c-.09,0-.09.12-.11.18h-.16c0,.08,0,.14-.06.21l-.09,0c0-.1,0-.19,0-.32s-.21-.25-.06-.41l-.19-.17h0l-.06-.14-.23.29a1,1,0,0,0,0,.16c0,.05,0,.1,0,.15l-.07,0,.09.23h-.16l0,.15c-.14,0-.12-.13-.16-.22l-.15.13-.11-.1c0,.11,0,.19,0,.27l.1.06v.1l.44.33c-.13,0-.16-.11-.28-.06s-.18,0-.27-.06l-.15-.17c-.06.14,0,.28-.11.38.18.1.33.2.49.3l-.14.08c-.09,0-.13-.13-.25-.08l0,.13-.19-.19c-.12.1-.09.15,0,.21l-.15,0,0,.13,0,0-.09.16-.28,0,.2.14c0,.09-.08.18,0,.28l0,0-.13-.13h-.18c0,.07.06.12,0,.18s.05.1.09.13a1.29,1.29,0,0,0,.16.09v.25l-.16-.05c0-.06,0-.11,0-.16l-.12-.08-.09.08c-.06-.1,0-.23-.2-.29s0,.12,0,.18L172,215c0,.09,0,.18,0,.28l-.28-.15c.07,0,.18,0,.21-.1l-.34-.07.07-.07-.22,0,.19-.08.08-.21-.1-.05-.13.08-.19-.05.29-.16,0-.11.17-.11v-.26l-.21-.05-.18.06-.15,0,.22-.23-.08,0,.29-.26-.16-.07-.32.23-.14,0-.17.06,0-.07.26-.17.2-.05-.06,0,.24-.13c.07-.14-.1-.2-.14-.31-.18.11-.24.27-.42.35-.1-.13.06-.18.12-.28l-.09-.11-.15.06,0-.1.42-.24-.16-.09.09-.19-.09-.11-.21.19c0-.06-.08-.1-.17,0s0,.12,0,.19a.85.85,0,0,1,0-.26s0,0-.05,0l-.05,0-.1,0-.15.06v-.08l.39-.12-.19-.07a1,1,0,0,0,.36-.16c-.07,0-.11,0-.15,0s-.09,0-.16,0l.24-.08-.08-.09a.5.5,0,0,0,0-.12s0,0,0-.05l-.12.09c0,.07,0,.12,0,.18l-.15-.07-.11.09c0,.11,0,.23-.07.32s-.13-.1-.17-.17H170c0-.12,0-.24,0-.36a.11.11,0,0,0,0-.06.49.49,0,0,1-.12-.36L170,211l-.21-.18,0-.16-.13,0,0,.16-.21.1.09.13-.12.11.11.15s0,0,0,.05l-.09-.06c-.1.13,0,.21.11.31l-.07,0h-.08l-.07,0,0,.13-.15,0,0-.22H169l-.15.14-.08-.12-.1.08-.24,0,0,0,.13-.05v-.07l-.21,0,.07-.08c-.1-.06-.22.09-.29,0s.17-.1.09-.2H168c0-.08,0-.15-.16-.18s0,.12,0,.18l-.17.07.11,0c0,.12-.14.07-.17.13l-.11.16-.15,0-.07.08.18.09c.11.05.12.08.08.2l-.16-.09h-.07l.06.12-.21,0a.6.6,0,0,0,.35.16c-.05.11-.19.08-.3.1l-.11.11-.14.08a1.07,1.07,0,0,0,.31,0s.06,0,.09,0l.09.15-.38.11a1.59,1.59,0,0,0-.38.07c0,.06.21,0,.18.11l-.21.11c.23.05.33-.09.48-.13l.08.07.18-.13.15,0a1.49,1.49,0,0,1-.65.3l-.12.21a.6.6,0,0,1,.08.08l-.12.07-.08.1-.11,0a1.37,1.37,0,0,0,0-.19l-.13.09-.36-.2s0-.05-.06-.08l.28-.07v-.27l.14,0v-.08l-.26.06-.08-.06.15-.16-.06,0c.07-.05.13-.1.1-.18H166l-.21-.13c.15-.09.15-.09.18-.2l-.31.07c0-.13.09-.21.2-.29l-.18,0v-.07l-.16,0,.12-.12-.11,0-.13.06-.15-.07.12-.1-.14,0,.18-.1a.61.61,0,0,0,0-.14l-.1,0a.11.11,0,0,0,0-.2h0l0,.11-.25,0,0,.07c-.08,0-.14,0-.11-.11l.29-.21-.16,0,.24-.12-.07,0a.94.94,0,0,0,.09-.12l0,0-.14.05c0-.06,0-.06-.11-.11s0,.14-.11.19l-.09,0v-.08l-.22,0c0-.11.19-.16.12-.27h-.1l.08-.12-.08-.1,0-.08-.21-.27c-.13,0-.06.1-.11.15l-.17.13.07.07a2.26,2.26,0,0,0,0,.29s0,0,0,0l0,.05c.06.16,0,.24-.09.33v-.18l-.2,0-.11-.18h-.05l-.08.32.15.09,0,.1.15,0v0l-.35.08-.07.06a.93.93,0,0,0-.13-.15c-.11.09,0,.18,0,.26l-.1,0a.83.83,0,0,0,.34.22l0,.07-.22,0,.14.14v.14c-.11-.1-.18-.17-.27-.24s-.06,0-.1-.06l-.14.2c0,.09.14.12.23.15s.14.08.2.15a.82.82,0,0,0,.23.12l-.12.11c0-.12-.13-.17-.27-.17a.35.35,0,0,0-.3-.16v.11l.13,0,0,.17.14.13-.1.09-.19-.11-.15.07v.22l.14.09,0,.07c.17.15.18.16.17.29l-.14-.14a.35.35,0,0,0-.11,0c-.1.12.07.15.1.21l-.06.13-.05.08c0-.1,0-.17,0-.24h-.09l-.09.11-.12-.06c-.12.08.05.11,0,.18l-.07.06.33.13-.24,0h-.17l-.41-.11c.08,0,.2,0,.3,0-.1-.06-.21,0-.3-.05l-.37-.09a0,0,0,0,1,0,0l.21,0-.14-.06v-.17l.22.2.13,0,.23.06-.12-.12c.15-.08.19.09.31.07,0-.19-.23-.21-.42-.2l-.17-.1v-.1c.13,0,.23.12.36,0l-.34-.09.12-.05c-.14-.08-.32,0-.42-.08l.2-.09-.06-.1c.14,0,.11.14.26.12l0-.11h0l.2.2,0-.08a.22.22,0,0,0,0-.08c.08,0,.07.14.2.16l0-.17a2.08,2.08,0,0,0-.29-.19,1.91,1.91,0,0,0-.36-.13l-.32,0,0-.13.22.06a1.22,1.22,0,0,1,.07-.17l.24.14H162l-.11-.13c.09,0,.2-.07.23-.17a.75.75,0,0,1-.2,0,5.12,5.12,0,0,1-.56-.15c-.09,0-.14-.09-.1-.17l.38.14,0-.07h.17a1.46,1.46,0,0,0-.44-.29.51.51,0,0,0,.27-.23l-.28,0-.09-.1.15,0,.05-.09h-.3l.05,0,0-.08-.26.08-.08-.11c.05-.06.18-.07.13-.16h-.16l0-.2h-.11l-.08.22h-.18l.13.13-.25.11.24,0c-.08.14-.2,0-.28,0v.08c-.1,0-.19-.07-.27,0l.34.22-.07.12-.2-.12a1.35,1.35,0,0,0,0,.18h-.19c.09.12.24.11.35.15l.24,0a2,2,0,0,1-.57.23c0,.1-.2.08-.17.18h.29l0-.07.17.19-.85.18c.17,0,.17,0,.23.1l-.23.15.07.05.42-.19.11.06.17-.14.19,0c-.1.15-.29.19-.4.27l-.26.05-.21.26.14,0-.26.21-.11,0-.06.06-.07,0a.4.4,0,0,1-.19-.11l.21-.18,0,0-.18,0c-.07-.08,0-.19-.13-.25l-.14.27h-.21l.12.08.07.08-.28.08,0,0-.15.11,0,.08a.35.35,0,0,0-.3,0l.43.26-.14.18c-.05-.08-.07-.16-.19-.17l-.06,0c.05.06.05.06,0,.14l-.1,0v-.18h-.1l-.15.19c0-.09-.08-.11-.16-.07s0,.11,0,.19c-.06-.11,0-.22-.08-.3l-.06,0-.2-.07.32-.12-.2,0,.39-.15c-.12-.11-.18,0-.28,0s.15-.06.19-.09a1.8,1.8,0,0,1,0-.19l0-.09c-.14.07-.1.18-.12.26l-.17-.06c-.07.06-.11.11-.1.18s0,.11,0,.17h0l-.11-.11c0-.09,0-.17,0-.22l0-.21-.11-.07c0-.15-.11-.29,0-.42-.19-.07-.19-.2-.22-.33h-.1l-.07.2-.17.11,0,.11-.1.1c0,.09.17.12.11.22l-.11-.08a.24.24,0,0,0,.11.3l-.08.06h-.13s0,.09,0,.14l-.16,0,0-.22h-.09l-.15.13-.06-.1-.11,0,.12.19-.07.07.21.09-.09.13.42.22.11.17h0l-.2-.11-.08.11,0-.14-.24,0-.09,0c0-.06,0-.1,0-.15h-.13c0,.08,0,.15,0,.18a.69.69,0,0,0-.06.13l0,.1.58.34-.19.15c-.07-.08-.11-.17-.26-.16l0,.18a.47.47,0,0,0-.29-.19c-.07.1,0,.17.09.23l-.21,0c0,.12.19.12.29.19s0,.1-.09.13a1.91,1.91,0,0,1-.32.15l-.15-.08-.15.08h0c-.16-.11-.09-.25-.08-.38v0l-.1,0,0-.18h-.09l-.17.22-.07.19.06.07-.1.1a.94.94,0,0,1,.09.12,0,0,0,0,1,0,.05h-.1l-.05.12-.1,0,0-.15h-.1l-.06.1v-.15a1,1,0,0,0-.51-.41c0-.08-.05-.16-.07-.24a.43.43,0,0,0-.12.17l-.16,0a.21.21,0,0,0,0-.15l-.17-.07c0-.06.07-.1.12-.16l.35.22.07,0c0-.1-.16-.15-.26-.23l.2,0,.2-.14v-.06l-.22,0-.25-.06.13-.16-.06-.11,0,0,.05-.06-.15-.09a1.09,1.09,0,0,0,0-.59l-.1.31h-.24l.12-.06,0,0,.14-.17a.38.38,0,0,0-.24,0,.31.31,0,0,1-.12.05l-.1,0,.13-.06-.07-.07.14-.09v0l0,0,0,0a.81.81,0,0,1,0-.17l.2-.31c-.17,0,0-.24-.13-.31s0-.25-.06-.34c-.05.19-.09.38-.13.56l-.05-.16-.12.13v.41a.13.13,0,0,0-.08,0l-.06-.08a5.57,5.57,0,0,0-.05-1.24,3.7,3.7,0,0,1,0-.58c-.14-.1-.13-.33-.12-.58l-.16,0c0,.17,0,.3,0,.42l-.14.13c.07.24-.09.46,0,.7a1.75,1.75,0,0,0,0,.72l-.15.1c0,.08,0,.14,0,.21h-.08l.07,0,0,.16c-.05-.2-.1-.37-.15-.55l-.08,0c0,.07,0,.13,0,.19a2.36,2.36,0,0,0-.12-.26c0,.29,0,.49,0,.73l.11,0h0l0,.1H151v.14l.16.09v.05a.5.5,0,0,0,.1.14l0,.07-.25-.11a.37.37,0,0,1,0,.18l-.09-.28c0,.24,0,.4,0,.57l-.07.07.06.17-.07.14c0,.06.06.1.08.15l-.12,0,0-.43,0,0-.06-.22,0,.13-.15.08,0,.16-.08.47-.05-.1c0,.07-.07.14-.1.2l.1.15c0,.11-.07.19-.1.29h-.24l-.1-.16c-.19,0-.35,0-.48-.31L150,214c0-.16.17-.15.16-.38l-.32-.05a3.77,3.77,0,0,0,.06-.39,1.05,1.05,0,0,0,0-.24l-.27.44-.15-.44.26-.17.26-.56c-.12-.15-.25,0-.35-.09a2.62,2.62,0,0,1,0-.28c-.12,0-.2.21-.32.11a.9.9,0,0,0,.35-.54h-.31l.07-.21-.13-.05c0-.09,0-.16.07-.26l-.18,0-.11-.22.06-.16c0-.18-.06-.32-.07-.4s-.13-.24-.18-.35l-.07,0c0,.2,0,.42-.06.62l-.15-.16,0,.13c.05.09.1.18.13.25l-.13.17.08.14,0,0-.21-.15c0,.21.06.26.12.4l-.35-.06v.17l.13.1a1.81,1.81,0,0,0,0,.23.58.58,0,0,0,.06.19c-.15,0-.22-.27-.36-.16a1,1,0,0,0,.25.6l-.16.18-.43-.24.24-.21-.29-.07-.11-.45-.14.07,0,.38-.28,0c.1.15.17.27.23.37s-.09.23-.2.19l-.24-.16c-.1.2.18.17.13.32s-.26,0-.38,0l-.06.1.28.12-.1.14c0,.08.18.1.07.22-.3-.21-.3-.21-.5-.17l.24.36.15.06a2.09,2.09,0,0,0-.65.61l.09,0,.15-.09.05.15c.22,0,.34-.24.56-.2,0,.19-.12.26-.2.37l-.6.19.13-.21c-.09-.13-.21,0-.32,0l0-.12-.2-.25-.29-.12.19-.27h-.24c0-.16-.07-.31-.11-.47l-.21,0v-.39h0a1.47,1.47,0,0,0-.1.22l-.41.19-.12-.2c.16-.1.32-.18.37-.41l-.18,0,.31-.16a1.28,1.28,0,0,1,0-.36s0-.05,0-.1l-.18.11-.05-.15h-.13c0,.1,0,.2,0,.29h-.16v-.23h-.24c.05-.16.09-.31.13-.45l-.09-.1v-.48c-.11-.2-.19-.37-.29-.56l-.09.1-.07.37-.15.05.11.19c-.05.2-.11.41-.17.68s0,.31,0,.5h-.15c0-.15,0-.29-.17-.34l-.06.07c-.06-.25-.12-.36-.21-.34s0,.16,0,.22l-.12.11.07.07-.1.12.22.21,0,.12.27.17h-.24l-.06.23-.21-.19c.09-.32.09-.32-.07-.52,0-.25-.13-.5.07-.71l-.18,0c-.05-.16-.09-.31-.14-.48l-.13,0c0,.12,0,.23,0,.32l-.15.08c0,.1,0,.2,0,.3l-.1.16.11.22-.16.15c0,.19.22.28.14.47l-.24,0v.21l-.13.11c-.06-.15,0-.33-.19-.44l-.14.21-.17-.13c0,.19,0,.33,0,.5l.34.18-.19,0v.12a1.68,1.68,0,0,0,.29.24.5.5,0,0,1,.22.31s0,0,0,.07l-.17-.11-.11.15c0-.08,0-.15-.05-.22l-.27,0c-.07-.1-.13-.19-.23-.31v.4a.4.4,0,0,0-.08.46l.22.08,0,0,.41.4-.21.2-.22-.3-.15.13c-.31-.19-.58-.45-1-.43l-.19-.23.1-.06.2.16c0-.12,0-.25.16-.31l.38.32,0-.33.2-.25c-.09-.12-.14,0-.18,0l-.84-.35a2.06,2.06,0,0,1-.07-.29l.47.24.3-.19-.5-.46.26-.4-.23,0-.22.17,0,0,.09-.18-.08-.14a.24.24,0,0,0,.26-.2h-.44c.08-.1.22-.14.14-.29l-.24.18a.44.44,0,0,1-.1-.08.33.33,0,0,1,0-.13l.18-.26-.09-.1-.13.14-.1-.51h0l-.13.46-.2,0,.13.19-.24.19s0,0,0,.07l.23,0-.09.11c-.11,0-.2-.12-.31,0l.07.18-.23-.15-.12.14.08.08-.34.25-.07-.25.36-.31a.42.42,0,0,0,0-.15l-.4-.18-.12.08a.13.13,0,0,0-.07-.12l.29-.05-.39-.21.18-.27-.25,0a1,1,0,0,0-.12-.48c-.21.09-.08.3-.17.44l-.19,0v.15l.16.09v.25l-.13.07-.1-.08a1.93,1.93,0,0,0,0-.24s-.05,0-.09-.09l-.17.09-.07.34-.28.19.12.25,0,0-.24-.08a1.14,1.14,0,0,1-.09.19c-.18,0-.07-.31-.28-.29-.06.22-.12.44-.18.68l-.06-.16-.13-.06c0-.12,0-.23,0-.34l-.22,0a.4.4,0,0,1,.09-.4c.08-.13.1-.24,0-.34l-.2.09,0,0c.06-.08.11-.17.17-.26s0-.23-.09-.3l.1-.29-.24-.22,0,0-.18-.43-.15,0a.63.63,0,0,1-.31.66c0,.09.08.15.12.21s0,.32-.08.44l0,.2,0,0h0v0l-.16.23h0v.32l-.11,0,0,.06v-.09l-.15-.06,0,.11,0-.05-.17.12a1.44,1.44,0,0,1-.13-.32c0-.11-.06-.21-.22-.25l.08.41-.1.12,0,.13-.16.06a1.06,1.06,0,0,0,.47.35l-.2.06-.22.19.07.08-.36,0L133,213a.24.24,0,0,0-.18.17c0,.12.08.22.12.31h-.27l-.08-.12c-.29,0-.32,0-.38-.25l.4-.05c-.15-.29-.32-.53-.45-.79l.2-.19v-.68l-.17-.32-.26.07c-.19-.17-.19-.17-.42,0l-.07-.14.31-.06-.34-.22.19-.23h-.26c-.09-.16.05-.39-.19-.51,0,.17,0,.32-.06.47l-.21,0s0,.06-.08.11l.19.13c0,.2,0,.31-.14.32l-.22-.18,0,0a1.87,1.87,0,0,1,.07.22c-.12,0-.27-.06-.36.13l.24.17-.09.18a.26.26,0,0,0-.35,0l.26.44-.18.15c0-.05,0-.11,0-.19l-.12,0c0-.12,0-.23,0-.35h-.14a2.34,2.34,0,0,0,0,.26l-.14-.14c-.06.12-.06.12-.25.11,0,0,0,0-.05.05l-.06.08v-.25c0-.08.12-.08.21-.07a1.47,1.47,0,0,0,.06-.14,1,1,0,0,0,0-.17l-.18,0,.37-.1-.09-.2c.12-.06.12-.17.11-.29h-.12l-.1.17-.18-.26-.23.07.14,0-.13.4,0-.12-.14-.05,0-.17c-.07-.08-.21.07-.25-.1l.15-.17v-.2l-.11-.11a2.27,2.27,0,0,1,0-.37c0-.14,0-.23-.2-.28v-.21l-.15-.12-.11.11c0,.06,0,.11,0,.17l-.12,0-.11-.07c0,.12.08.09.12.13v0l-.14,0c-.16.16.15.25,0,.38l-.09-.06c-.1.3-.39.38-.66.51l-.07-.13-.14.08.06.23-.09.18c-.18,0-.18,0-.28.15l.15,0,.09.09.41.1-.31.05.28.2-.18.12-.37,0-.18-.11-.16.14.19.32h-.19v0h-.06c0,.11,0,.21,0,.31l-.17.1v.11h-.08l0,.19c0,.07-.14.11-.15.19H126l-.14.12-.17-.22.3,0a1.93,1.93,0,0,1,0-.24h-.47l.19-.12,0-.12c-.17-.07-.23.09-.35.14-.09-.1-.06-.22,0-.33a1.37,1.37,0,0,0,.18-.16l-.13-.17-.15.11c0-.19,0-.41-.18-.53l-.16.12v.45l-.33,0c.08.13.18.21.16.29l-.39.38h-.19v-.07l-.28,0v-.1l-.25,0,0-.28.34.17s0,0,0,.07h.29l.07-.14.18.12h0l0-.13a2.62,2.62,0,0,0-.74-.48l.26-.1c.06-.13.11-.22.17-.33l-.24,0-.17.12-.16-.25c.13,0,.27,0,.33-.17a.9.9,0,0,1-.47-.08l.22-.14c-.21-.12-.4.09-.59,0v-.14l.2-.16s0-.08.06-.14l-.33,0v-.27c-.09,0-.12-.15-.23-.11l0-.05h0l-.07.14-.18,0v.07l.17.09a1.14,1.14,0,0,0-.44.23l.1.13-.26-.08-.11.08.35.22,0,0-.08.11-.16-.09a1.62,1.62,0,0,1,0,.18c-.07,0-.21,0-.25.08h-.09v.09l.32.22-.25.05c.08.14-.21.12-.18.25h.23l0,.15c-.12.07-.26,0-.37.08s0,0,.06,0l-.06.05a.78.78,0,0,0-.3,0l.29.09c-.07.11-.27.09-.31.22l.08,0,.55-.25,0,.08h.12v0a.31.31,0,0,0,0,.08.28.28,0,0,0,0,.09l-.14.06-.16,0-.15,0,0,.11-.14.13-.11.06a.77.77,0,0,0,0,.15h.13l-.18.14a1,1,0,0,1-.2.05l-.11.09-.23-.06v-.17c.08,0,.19,0,.22-.15l-.06,0-.21.07,0-.25s0-.08-.16-.07l-.08.35-.24,0v.06l.18.11-.18.09s-.14,0-.14.08-.11.05-.15.1l0,.11-.27,0-.11.08.54.31-.14.18c-.11-.07-.17-.16-.31-.17s.1.14,0,.22h-.15l.1-.14a.19.19,0,0,0-.17-.12l-.16.2-.17-.13-.12.11v.22h0v-.4l-.11,0-.34-.06a2.05,2.05,0,0,0,.49-.18l-.26,0A2.78,2.78,0,0,0,119,213c-.14-.07-.25.05-.42,0l.31-.08c0-.07,0-.11-.06-.14l.07-.21h-.12l-.18.37-.1-.13-.16.11v.26l-.19-.08c0-.06,0-.17-.06-.24l.12-.2-.16-.12a.78.78,0,0,0-.09-.42l.1,0,0-.12-.17,0c.06-.09,0-.14-.07-.18s0-.18-.15-.17l-.05.22-.21.12.07.19-.08,0c0,.07,0,.12,0,.17l0,.09-.13,0,0,.07-.16.11.1.21h0l-.1,0a.23.23,0,0,0,0,.14h0l0,.05h0l-.08-.25a.8.8,0,0,0,0-.46l-.11,0c0-.11.07-.2.1-.29l-.14-.21.1-.19-.29-.28,0-.34c-.13-.09-.13-.09-.27-.07,0,.2-.07.4-.1.59l-.12,0-.17.3.14.18-.14.25c.07.3-.17.6,0,.86,0,.14,0,.25-.07.37l-.16.06c0-.14,0-.28,0-.43l-.24,0-.07-.07,0,0a.59.59,0,0,0-.26-.47,1,1,0,0,0,0,.28l-.06.26h-.43l-.08-.12c-.29,0-.32,0-.38-.26l.4,0c-.15-.29-.31-.53-.45-.79l.2-.19V211l-.17-.31-.26.07c-.19-.17-.19-.17-.42,0l-.07-.15.31-.05-.33-.22.18-.23h-.26c-.09-.16.05-.39-.19-.51,0,.17,0,.31-.06.47l-.21,0s0,.06-.08.11l.19.13c0,.2,0,.31-.14.32l-.22-.19,0,0a1.72,1.72,0,0,1,.07.21c-.12,0-.27-.05-.36.13l.24.18-.09.18a.25.25,0,0,0-.35,0l.26.44a3.23,3.23,0,0,0-.29.25c-.08.09-.23.15-.18.33a1,1,0,0,0,.37,0,1.51,1.51,0,0,0,.4-.18c-.08.15-.15.26-.2.35l-.45.11-.25.18h0v-.16h-.13v.09s0,0,0,0l0,0v.06l-.12-.12c0,.1,0,.1-.22.09l0,0a.23.23,0,0,1,0,.07v-.22c0-.06.11-.06.18-.06l.06-.12,0-.14-.16,0,.32-.08-.08-.17a.24.24,0,0,0,.1-.26h-.1l-.09.15-.15-.23-.2.06.12,0L111,212l0-.1-.12-.05q0-.09,0-.15c-.07-.07-.19.06-.22-.08l.13-.16v-.17l-.1-.09c0-.13,0-.22,0-.32s0-.2-.17-.24v-.19l-.13-.1-.1.1,0,.14-.1,0-.1-.06c0,.1.07.08.11.11v0l-.12,0c-.14.13.12.21,0,.33L110,211c-.08.26-.34.33-.57.44l-.06-.11-.12.07,0,.2-.08.16c-.15,0-.15,0-.24.12l.13,0,.07.09.36.08-.27,0,.24.17-.15.11-.32,0-.15-.1-.15.13.17.27h-.16v.15l.43.28-.29.06v.14c.1.08.18.17.12.32a1.62,1.62,0,0,1-.39-.48h-.14c0,.06,0,.12,0,.17l0,0v0l-.24,0-.13.13a2,2,0,0,1-.18-.23l.3-.05c0-.08,0-.15,0-.24h-.47l.19-.11,0-.12c-.16-.08-.23.08-.34.13s-.06-.21,0-.32l.17-.16-.13-.17-.15.11c0-.2,0-.41-.18-.53l-.16.12v.45l-.33-.06c.08.13.18.22.17.3l-.16.15a1.84,1.84,0,0,0-.52-.33l.22-.08.15-.29h-.21l-.14.1-.14-.22c.11,0,.23,0,.29-.15a.62.62,0,0,1-.41-.07l.19-.11c-.18-.11-.35.07-.51,0v-.12l.17-.14s0-.07,0-.13l-.28,0v-.24c-.09,0-.1-.15-.22-.1s0,.28,0,.43l-.26-.1h0l0,.15.14.08-.31.15-.17.24h-.31v.08l.54.37-.14.14c-.1-.07-.15-.2-.31-.13l0,.19c-.1.06-.23,0-.32.07a.7.7,0,0,0,.42.23l0,.1a.34.34,0,0,1,0,.1l-.37.07a1,1,0,0,0,0,.15l-.23.11,0,.12h.12l.11-.11.09.13.21-.16,0,0,0,0-.07.07.13.06-.06.09-.6.06-.06.1h-.39l0,.14.36.07-.23.12-.16.11c-.05,0-.05.08,0,.13a1.75,1.75,0,0,0,.67-.36l0,.18h.18c0-.14.06-.21.19-.24s.13,0,.12.12l-.28.15c-.12.17-.32.17-.53.17l-.12.12.07.06-.21.19,0,.15h.12l.11-.11H104l-.11.12-.16.07-.15.16-.46-.12s0,0,0,0l.07,0s0,0,0,0a.28.28,0,0,0,0-.09l.17.13v-.18c.12,0,.11.14.26.07s-.15-.17-.21-.26-.24-.1-.26-.23l.23.15.06-.06-.13-.13s-.07-.1-.11-.14a1.31,1.31,0,0,1-.33-.09.66.66,0,0,1-.27-.19h.18l.16.13.1-.09.46.2c0-.13-.19-.12-.2-.23l.21-.06v0l-.24,0c-.11-.11-.28-.09-.44-.1l-.1-.07.09-.16.15.08.07,0s.09.1.17,0-.21-.15-.31-.21l-.38-.14v0h.24l.25-.1V213l-.21,0a.92.92,0,0,1,0-.15l-.2.13-.11-.14a.65.65,0,0,0,.37-.24h-.19a.61.61,0,0,0-.35-.22l.12-.14h-.21a1.94,1.94,0,0,1,0-.24l-.12,0a1.42,1.42,0,0,1,0,.2l-.22,0,.19.19-.09.12-.19-.1c-.11.08,0,.09,0,.14h-.22l-.08,0,.14.08,0,.18-.28-.11,0,.08.18.17c-.11.11-.3.16-.37.29l.06,0,0,0,.15.06.3-.11v.13l-.22.11v0l-.43.11s-.09-.09-.16,0l.2.14-.07.09.05,0,.3-.17c0,.08,0,.13.06.2l.11,0,.1,0,0,.09a3.78,3.78,0,0,0-.86.29l-.07-.11-.17.08-.13-.07.18-.19h-.19l0-.19-.12,0c0,.09,0,.16,0,.23H100l-.54.34-.06-.11.35-.17.3-.25c-.07-.07-.07-.15-.18-.19s-.16.21-.32.27c0-.11,0-.17.12-.23l-.12-.08-.09.06,0-.08.29-.18s0,0,0,0l-.12-.05V213l0,0,.07,0c0-.08,0-.09-.12-.07l-.12.12-.06-.08h-.08l-.07-.05-.23,0,.26-.12-.1-.05.27-.11-.15,0,.08,0-.09-.09.08-.09-.08,0c-.09.05-.09.12-.11.19H99l0,.2h-.09l0-.33c-.06-.11-.21-.25-.06-.41l-.19-.17h0l-.06-.14c-.1.12-.17.22-.23.3a.77.77,0,0,0,0,.15c0,.05,0,.1,0,.15l-.07.05.09.22h-.16l0,.15c-.14,0-.12-.12-.16-.21l-.15.12-.11-.1c0,.11,0,.19,0,.27l.1.06v.1l.44.33c-.14,0-.16-.11-.28-.06s-.18,0-.27-.06l-.15-.17c-.06.14,0,.28-.11.38l.49.3-.14.08c-.09,0-.13-.12-.25-.08l0,.13-.2-.19c-.11.1-.09.16,0,.21l-.15,0,0,.13,0,0-.08.17-.28,0,.2.14c0,.09-.08.18,0,.28s0,0,0,0l-.13-.13h-.18c0,.07.06.12,0,.19s.05.09.09.12a1.29,1.29,0,0,0,.16.09v.25l-.16,0,0-.16-.12-.09-.09.08c-.06-.1,0-.23-.2-.28s0,.12,0,.17l-.09,0c0,.09,0,.18,0,.29l-.28-.16c.07,0,.18,0,.21-.09l-.34-.08.07-.07-.22,0,.19-.08.08-.21-.1,0-.13.09-.2-.06.3-.16,0-.1L96,214v-.27l-.21-.05-.18.06-.15,0,.21-.23-.07-.05.28-.26-.15-.07-.32.23-.14,0a.77.77,0,0,0-.17.07l0-.08.26-.17.2,0-.06,0,.24-.13c.07-.15-.1-.21-.15-.31-.17.1-.23.26-.42.34-.09-.12.07-.18.13-.27l-.09-.11-.15.06a.28.28,0,0,0,0-.11l.43-.24-.16-.09.09-.19-.09-.11-.21.19c0-.06-.08-.1-.17,0a1.23,1.23,0,0,1,0,.19.78.78,0,0,1,0-.26s0,0,0-.05l-.05,0-.1,0-.15.06v-.08l.39-.12-.19-.06a.88.88,0,0,0,.35-.17c-.06,0-.1,0-.14,0s-.09,0-.16,0l.23-.09-.07-.09a.5.5,0,0,0,0-.12s0,0,0-.05l-.12.1v.17l-.15-.06-.11.08c0,.12,0,.23-.07.33s-.13-.11-.18-.18h.09c0-.12,0-.24,0-.36a.09.09,0,0,0,0-.06.52.52,0,0,1-.11-.36l.08-.11-.21-.18,0-.16-.13,0c0,.06,0,.12,0,.16l-.21.1.08.13-.11.11.11.15s0,0,0,.05l-.09-.06c-.1.13,0,.21.11.31l-.07,0h-.15l0,.14-.16,0,0-.22h-.08l-.15.14L93,211.4l-.1.08-.24,0s0,0,0,0l.13-.05v-.07l-.21,0,.07-.08c-.1-.05-.22.09-.29,0s.17-.1.09-.2h-.11c0-.07,0-.15-.16-.18l0,.18-.18.07.12,0c0,.11-.14.06-.18.12l-.1.16-.15-.05-.07.08.17.09c.12.05.13.08.09.2l-.16-.08h-.07l.06.11-.21,0a.65.65,0,0,0,.35.15c-.05.11-.2.08-.3.11l-.12.11a.74.74,0,0,1-.13.08,1.06,1.06,0,0,0,.31,0s.06,0,.09,0l.09.15-.38.11a2.32,2.32,0,0,0-.38.07c0,.07.21,0,.18.11l-.21.11c.23,0,.33-.09.48-.13l.08.07.18-.12.15,0a1.49,1.49,0,0,1-.65.3l-.12.21.08.08-.12.08-.09.1-.1,0,0-.18-.13.08-.36-.19a.24.24,0,0,1-.06-.08l.28-.08v-.26l.13-.05v-.07l-.25.05-.08-.06.15-.15-.06-.05c.07,0,.13-.1.1-.18h-.25l-.21-.12c.15-.1.15-.1.18-.21l-.31.07c0-.13.09-.2.2-.29l-.18,0v-.07l-.16,0,.12-.12-.11-.05-.13.06-.15-.07.12-.1-.14,0,.18-.1v-.14l-.11,0c.1-.07.1-.13,0-.21h0l0,.11-.25,0,0,.07c-.08,0-.14,0-.11-.11l.29-.21-.16,0,.24-.12-.07-.05.09-.11,0,0-.14,0c0-.06,0-.06-.11-.1s0,.13-.11.19l-.09,0v-.08l-.22,0c0-.1.19-.16.12-.27h-.1l.08-.12-.09-.1,0-.07-.21-.28c-.13,0-.06.1-.11.15l-.17.14.06.06c0,.09,0,.18,0,.29s0,0,0,0l0,0a.24.24,0,0,1-.09.34v-.19l-.2,0c0-.05-.07-.12-.11-.18h0c0,.1-.05.2-.08.31l.15.09,0,.1.15,0v0l-.35.08-.07.06-.13-.15c-.11.1,0,.18,0,.27l-.1,0a1.11,1.11,0,0,0,.34.22l0,.06-.22,0,.14.14v.13l-.27-.24-.1-.06-.14.21c0,.09.14.11.23.14s.14.09.2.15.15.08.23.12l-.12.11c0-.12-.13-.17-.27-.17a.34.34,0,0,0-.3-.15v.1l.13.05,0,.17a.92.92,0,0,0,.14.13l-.1.09-.19-.1L87,212v.22l.14.09,0,.07c.17.15.18.17.17.3a1,1,0,0,0-.14-.15.35.35,0,0,0-.11,0c-.1.12.07.16.1.21a.81.81,0,0,1-.06.13.58.58,0,0,0,0,.09c0-.11,0-.18,0-.25h-.09l-.09.12-.12-.07c-.12.08.05.11,0,.18l-.07.07.33.12h-.42l-.4-.11c.07,0,.2,0,.3,0-.1-.06-.21,0-.3,0l-.37-.1h0l.21-.06-.14,0v-.18l.22.21.13,0,.22.06-.11-.12c.15-.07.19.09.31.07,0-.19-.23-.21-.42-.2l-.17-.1v-.1c.13,0,.23.12.36,0l-.34-.1.12,0c-.14-.08-.32,0-.42-.09l.2-.08-.06-.11c.14,0,.11.14.26.12l0-.11h0l.2.2a.35.35,0,0,0,0-.08.19.19,0,0,0,0-.08c.08,0,.07.14.2.16s0-.1,0-.17-.18-.13-.29-.19a2.17,2.17,0,0,0-.36-.12,3.06,3.06,0,0,0-.32-.05l0-.13.22.06c0-.06,0-.1.07-.17l.24.14h.11l-.11-.12c.09,0,.2-.08.23-.18a.79.79,0,0,1-.2,0L85.6,211c-.09,0-.14-.1-.1-.18l.38.14,0-.07h.16a1.15,1.15,0,0,0-.43-.28.55.55,0,0,0,.27-.23h-.28l-.09-.1.15,0,0-.08-.31,0,.06-.05,0-.08-.26.08L85.2,210c0-.06.18-.07.13-.16h-.16l0-.2H85l-.08.22h-.18l.13.13-.25.11.24,0c-.08.14-.2,0-.29,0l0,.08c-.1,0-.19-.07-.27,0l.34.22-.07.12-.2-.11a1.35,1.35,0,0,0,0,.18h-.19c.09.11.23.1.35.14l.24,0a2,2,0,0,1-.57.23c0,.11-.2.08-.17.19h.29l0-.08.17.19-.85.18c.16,0,.16,0,.23.11l-.23.14.07.05.42-.18.11.06.17-.15.19,0c-.11.15-.29.19-.4.28l-.26,0-.21.26.14,0-.26.2h-.11l-.06.05-.08,0a.29.29,0,0,1-.18-.11l.21-.18,0,0h-.18c-.07-.08,0-.19-.13-.25l-.15.27h-.2l.12.09.07.07-.28.08,0,0-.15.12,0,.08a.3.3,0,0,0-.29,0l.42.26-.13.19c0-.09-.07-.17-.19-.18l-.06,0c.05.06.05.06,0,.14h-.1v-.19h-.1L82,213c0-.08-.08-.11-.16-.07s0,.12,0,.2c-.06-.11,0-.22-.08-.31l-.06,0-.2-.07.32-.12-.2,0,.39-.15c-.12-.1-.19.05-.28,0s.15-.06.19-.09l-.06-.19a.32.32,0,0,0,0-.09c-.14.07-.1.18-.12.27l-.17-.07c-.07.06-.11.11-.1.18s0,.12,0,.17v0l-.11-.11c0-.09,0-.17,0-.23l0-.21-.11-.07c0-.15-.11-.28,0-.42-.2-.07-.19-.2-.22-.33h-.1l-.07.2-.18.11a.64.64,0,0,1,.06.11l-.1.1c0,.09.17.12.11.22l-.11-.08a.23.23,0,0,0,.11.3l-.08.06h-.13l0,.14-.16,0,0-.22h-.09l-.15.14-.06-.11-.11,0,.12.19-.07.07.21.09s-.05.07-.09.13l.42.22a1.63,1.63,0,0,1,.11.17l0,0-.2-.11-.08.1,0-.13-.24-.05-.09,0,0-.16h-.13l0,.18-.06.13,0,.1.58.35a1.33,1.33,0,0,0-.19.14c-.07-.08-.11-.16-.26-.16l0,.19a.44.44,0,0,0-.29-.2c-.07.11,0,.17.09.23l-.21,0c0,.12.19.12.29.2s0,.09-.09.12a2.37,2.37,0,0,1-.32.15l-.15-.08-.15.08h0c-.16-.11-.09-.24-.08-.37v0l-.1,0a1,1,0,0,1,0-.18h-.09l-.17.22-.07.19.06.07-.1.1s.07.09.09.13,0,0,0,0h-.1l0,.13-.1,0,0-.16h-.1l-.07.1v-.14a1.43,1.43,0,0,0-.91-.55c-.22,0-.48-.1-.47-.18l.11-.07c.07,0,.09.13.21.09,0-.09.06-.13.12-.2l.35.21.07,0c0-.1-.16-.14-.26-.23l.2,0,.2-.14v-.06l-.22,0-.69-.16c-.13-.09-.24-.18-.19-.32a2.73,2.73,0,0,0,.52.23l.06-.13.16.07.05-.06-.46-.3-.14,0,.21-.11h0l.14-.17a.33.33,0,0,0-.24,0,.33.33,0,0,1-.26,0l.17-.07-.1-.13.19-.09-.07-.07-.22,0,0,0,.15-.11a.2.2,0,0,0-.27.07l-.16-.08v-.1c.06-.07.16-.1.18-.17s-.13,0-.19,0l-.08,0c0-.09,0-.17,0-.25H76l-.08.3H75.6l.18.12c0,.11-.18.09-.26.12v.08h.2s0,0,.06,0l-.12.07c-.13,0-.17-.12-.29,0l0,.09h-.16v.15l.29.15-.06.2-.25-.12c0,.15-.06.28.09.39a.36.36,0,0,1,.34-.05l-.42.22v.36h.14l-.16.14c0,.06,0,.12.06.16a.69.69,0,0,0,.19.12l-.24.19c0,.08,0,.17,0,.28a2,2,0,0,0,0,.55l.11,0-.11.08c0,.23,0,.47,0,.7a2.86,2.86,0,0,0,0,.66,1.54,1.54,0,0,0,0,.19c0,.23,0,.45,0,.68v2.74a1.68,1.68,0,0,0,0,.2c.42,0,.82,0,1.21,0a5.06,5.06,0,0,1-.55,0h-.59v.14s0,0,0,.06a1.77,1.77,0,0,0,.23,0l2.61,0c1.67,0,3.35,0,5,0a6.19,6.19,0,0,0,.74,0,8.63,8.63,0,0,1,.88,0c1.11,0,2.23,0,3.35,0s2.22,0,3.34,0,2.47,0,3.7,0h.25l-.07-.09c.23-.09.26-.08.49.08s.26,0,.37,0l0-.17h.21l.08.13h5.79c1.44,0,2.87,0,4.31,0,1.1,0,2.21,0,3.32,0h.28s0,0,0,0h.35l.06,0h.44l0,0h.25v.1a.52.52,0,0,1,.44,0,.5.5,0,0,1,.13,0,3.87,3.87,0,0,1,.76,0,.62.62,0,0,0,.19,0,1.93,1.93,0,0,1,.34,0h.12v.06h.13l.32,0v-.06H114l.26,0,0,0c.42,0,.81,0,1.19,0h.43v0a2.11,2.11,0,0,1,.35,0c1.1,0,2.2,0,3.29,0,1.74,0,3.48,0,5.22,0a1.57,1.57,0,0,1,.53,0,.41.41,0,0,0,.19,0l.23,0c.19,0,.38,0,.56,0l1.59,0c1.19,0,2.38,0,3.57,0s2.39,0,3.59,0c.62,0,1.24,0,1.87,0a.28.28,0,0,0,0,.08h.3l3.12-.05c2.18-.05,4.36,0,6.53,0,.43,0,.86,0,1.3-.07a1.82,1.82,0,0,0,.33,0,3.23,3.23,0,0,1,.93,0,1.48,1.48,0,0,1,.34,0,8.78,8.78,0,0,1,1.28-.05v.09l0,.06h.23l2.62,0c1.66,0,3.34,0,5,0a6.15,6.15,0,0,0,.74,0c.29,0,.59,0,.88,0h3.35c1.11,0,2.22,0,3.34,0s2.47,0,3.7,0h.25l-.07-.08c.23-.09.26-.08.49.08s.26,0,.37,0l0-.17h.21l.08.13h5.8c1.43,0,2.86,0,4.3,0,1.1,0,2.21,0,3.32,0H186s0,0,0,0h.35l.06,0h.44l0,0h.25v.09a.56.56,0,0,1,.44,0,.5.5,0,0,1,.13,0,4.83,4.83,0,0,1,.76,0,.61.61,0,0,0,.19,0,1.94,1.94,0,0,1,.34,0h.12v.07h.45v-.06h.15a2.3,2.3,0,0,1,.26,0l0,0c.42,0,.81,0,1.19,0h.43v0l.35,0c1.1,0,2.2,0,3.29,0,1.74,0,3.48,0,5.22,0a1.57,1.57,0,0,1,.53,0c.06,0,.13,0,.19,0l.24,0c.18,0,.37,0,.55,0l1.59,0c1.19,0,2.38,0,3.57,0s2.39,0,3.59,0c.62,0,1.25,0,1.87,0a.22.22,0,0,0,0,.08h.3l3.12,0c2.18-.06,4.36,0,6.53,0,.43,0,.87,0,1.3-.07.11,0,.23,0,.33,0a3.23,3.23,0,0,1,.93-.05,1.42,1.42,0,0,1,.34,0,12.11,12.11,0,0,1,2.33,0l.32-.22h1.13v-2.77C229.21,218,229.19,218.1,229.16,218.22ZM78.93,214.41l.16.08-.1.19C78.86,214.63,78.85,214.58,78.93,214.41Zm-1.91-.2.32.28v-.17h.1l.13.19.07,0c.07-.08,0-.15,0-.23.17,0,.17.13.23.18s0,.16.07.27l.12.05,0,.1.22.16-.08.1-.09-.09h-.14l-.16-.15,0,.18a1.38,1.38,0,0,1-.29,0,1,1,0,0,1-.25-.12l0-.05-.06-.08a.44.44,0,0,1,.26,0,.25.25,0,0,0,.25,0l-.11-.09-.32,0a1,1,0,0,0,.17-.11H77l-.07-.08.25-.09C77.1,214.36,77,214.31,77,214.21Zm0,1.13-.12-.28h0s.08,0,.1.08a.56.56,0,0,0,.41.27l.12,0-.23.12h-.23l-.11-.08.12,0v-.09Zm2.73,5H76.85v0h3.08v0Zm2.57-7.09,0,0h.36a.51.51,0,0,1-.25.14c-.17.05-.33.12-.5.18l0-.11Zm.06.38a.8.8,0,0,1-.29.29c0-.07,0-.12,0-.17Zm.59,6.71H81.25v0H83Zm1.1-7.88c.11.07,0,.09,0,.15l0,.07-.32.06-.07-.05Zm2,7.9-.32,0H83.5v0h2.69Zm.4-6.66c-.14,0-.16-.1-.3-.1l.12-.06v-.1l.19.07Zm.09-.5-.07.17-.33-.14-.09,0a3.32,3.32,0,0,1-.42-.3,1,1,0,0,1,.43.17h.17l.08-.08.49.24-.1.11Zm.2,7.1,0-.07.17-.1.16.09C87,220.31,86.88,220.26,86.77,220.27Zm.13-.54-.07-.17.09-.13,0,0-.07.13.08,0,.16-.14c.08.08,0,.1,0,.15l.11,0C87,219.68,87,219.68,86.9,219.73Zm6.67-7.6c0,.06.11.11,0,.19l-.15-.1-.21,0,.1-.07-.12-.07V212h.07C93.37,212.07,93.55,212,93.57,212.13Zm-.64-.65.12.13-.06.06a.47.47,0,0,0,.39.13l0,.07c-.11,0-.2-.09-.29,0l-.36-.21A.19.19,0,0,0,92.93,211.48Zm-1.79,1.81c0,.07,0,.12,0,.2l.2-.12s-.06.12,0,.15l.13-.07-.07.12h-.33L91,213.4Zm.1.76,0,.16-.19-.08a2.23,2.23,0,0,1-.21-.22Zm3,6.26-1.09,0-1.1,0H87.57c.21,0,7.33-.05,7.72,0Zm3.25-6.46a3.73,3.73,0,0,0,.53.34h-.21l-.27-.24,0,0Zm.57,2.39c0,.09-.07.11-.13.14s-.09.1-.14.18C97.72,216.35,97.76,216.3,98,216.24ZM96.23,216c-.32-.19-.32-.19-.34-.27l.09,0s0,.05,0,0l.34.09Zm.22-.66v.08l-.18-.08.21-.14.33.08v0Zm.44,5h-.23v0h2.55v0Zm2.1-3.66-.18-.13.14-.1,0,0c.06.05.06.05.17.06l.08-.1,0,0s0,.07,0,.12l.11,0Zm1.25,3.63h0Zm.83-5.89a1,1,0,0,1,.1-.18l.24.13C101.33,214.45,101.21,214.4,101.07,214.39Zm2.7,1.3-.15.07h0l0-.09h-.16l0,0,.36-.07Zm2.39-2.06v-.07l.07.05Zm.1,2.54s0,0,0,0l.05,0h0Zm.07-3.15h-.08V213l-.22,0a2.17,2.17,0,0,0,0-.25l.29.15s0,0,0,.06h.18Zm1.77,7.28h-1v0h1Zm-.06-5.75-.05,0v.08c-.1-.07-.21-.13-.19-.32l.33.17A.2.2,0,0,0,108,214.55Zm.45-.77h-.33a.11.11,0,0,0,0,.08l-.12,0a2.85,2.85,0,0,0,.25-.33l.1.1a1.19,1.19,0,0,0,.16.08l-.09.08Zm.28.23v0h-.06l-.22-.24.3.09.18.13Zm1.16-2.1c0,.06-.08.1-.13.18v-.27c0-.17-.11-.22-.32-.2v-.16l.07,0,.26-.14c0,.06.08.1.12.17Zm1.85.78,0,0-.06.05v-.07Zm.26,1.54h0Zm.25-1a3,3,0,0,0-.52.15l-.07,0-.07,0c0-.06,0-.13,0-.21l-.13-.11.1,0v0l.39-.27c.06.12.11.21.15.31l.23-.1Zm1.42-1.74a2.21,2.21,0,0,0-.11-.21l.46-.37.08.27A.59.59,0,0,0,113.71,211.47Zm1,1.88-.06.05h0l.22-.14,0,0Zm.7-.08s0-.08,0-.12l.09-.07A1.82,1.82,0,0,0,115.38,213.27Zm3.75,1.41a2.32,2.32,0,0,0,0-.24l.11,0,.16.07A.81.81,0,0,1,119.13,214.68Zm.53-.64a1.28,1.28,0,0,1-.28.07,1.28,1.28,0,0,0-.22.09l-.16.07,0-.1-.13,0s0,0,0,0,0,0,.07-.06a1.14,1.14,0,0,0,.37-.17.27.27,0,0,1,.17-.06l.16,0Zm.26-.13v0H120Zm1.45-1.33.09-.09h0Zm.58-1.29.08,0,0,.15Zm.17.15h0Zm18.14,3.91c0-.06,0-.13,0-.21.18.12.26.39.48.37l.36.35a1,1,0,0,0,.16.2c.07.07.22.06.2.22l-.37-.17v0l-.36-.36-.29,0,.17-.15h-.37l-.18-.17Zm-1.92-3.11.38.36-.17.2-.06-.1.07-.07-.14,0,0-.07v0l-.08,0Zm0,.63v0h0Zm-2-.74,0,0a.27.27,0,0,0,.13.21l-.21.08-.09-.09Zm-.42.57a.44.44,0,0,0,.35-.21.32.32,0,0,0,.07.23l-.21.16c-.14-.23-.29,0-.45,0A.33.33,0,0,1,135.92,212.7Zm.45.33-.1,0,.06,0Zm-.13.17-.19.1,0,.17-.12-.36a1.83,1.83,0,0,1,.33-.11l-.19.2Zm-.81.41h0a1.06,1.06,0,0,0,0,.19h0l-.06,0A1.09,1.09,0,0,1,135.43,213.61Zm-2.25-.54a.45.45,0,0,0,0,.11l-.08-.15Zm-.34.64-.05,0,.37.29-.12,0V214l-.33-.17Zm-.62,4.06h.23l.08,0h-.37Zm.16.18h0Zm-.21-6.66.08.27a.59.59,0,0,0-.43.31l-.11-.21Zm-2.12,1.19a.76.76,0,0,0,.21,0,2,2,0,0,0,.4-.19c-.08.15-.14.26-.2.35v-.05c-.17-.11-.25.14-.42,0Zm-.11-.23a0,0,0,0,0,0,0h0Zm-2.38-1.66v-.2l.08.06.3-.16.14.19v.44l-.15.2v-.31C127.91,210.62,127.81,210.55,127.56,210.59Zm-.37,1.66-.23,0v0l-.15,0V212Zm-.12,1.14h0v0Zm-.07-.62v-.13A.28.28,0,0,1,127,212.77Zm-.77,0a1,1,0,0,0,.1.11h0a.21.21,0,0,0,0,.19h-.31A.75.75,0,0,0,126.23,212.78Zm-.19.32c0,.16.17.21.23.27v0l0,.06-.13-.2-.2,0Zm-.05.81-.21.09h0a.28.28,0,0,1-.11-.23A.45.45,0,0,0,126,213.91Zm-1.67-.11,0,0-.06,0-.1-.11.06,0Zm-.26-1,.11-.06,0,.05a.28.28,0,0,1,0,.13.1.1,0,0,0-.05,0l-.2,0C124,212.94,124.05,212.87,124.06,212.82Zm-.34,0,.26.2h0l0,.11a.38.38,0,0,1-.28-.09Zm-1,7.56v0h10.13C132.65,220.4,125,220.42,122.73,220.38Zm14.16,0h-3.67a.42.42,0,0,1-.22,0h4.76v0h2.6c.2,0,.41,0,.61,0a1.46,1.46,0,0,1,.55.06Zm4.8,0c.23-.06,4.46-.08,5.05,0Zm4.89-5c-.11,0-.22.17-.37,0l.41-.3.12.07Zm.41,5h-.12l.12,0Zm.69-7.84h.14v.17C147.76,212.72,147.72,212.68,147.68,212.55Zm.36,0-.06.07-.09-.05Zm0,1c0-.06,0-.12-.05-.17l.09-.08.18,0Zm2.24,2.5s-.07,0-.08,0-.07-.22-.11-.35l-.21-.05V215c.12.18.2.35.33.31s.06.16.1.25l-.07.09C150.21,215.78,150.22,215.88,150.24,216Zm4.4-1.37.16.08-.1.19C154.57,214.83,154.56,214.79,154.64,214.62Zm-1.3-.1c.17,0,.17.12.23.18s.05.16.07.27l.13.05,0,.1.22.15-.08.11-.09-.09-.14,0-.16-.15,0,.19h-.22c0-.07.07-.14.1-.2h0l.08,0-.11-.09h0l0-.09-.07.08-.17,0,0,0,.11-.07h-.07l.12-.23.08.12.07,0C153.42,214.67,153.34,214.6,153.34,214.52Zm-.59.81.08.1-.06.13h0l-.07-.16.07-.07Zm0,.35h0Zm.45,0v-.1h0s.05,0,.11,0Zm-.16-.48-.09,0,.05-.05,0,0,0,0h0a.41.41,0,0,1,.16,0Zm-.19-.64a.16.16,0,0,1-.06-.08v-.07l.11.09Zm-.62-2.27v0h0Zm-.83.86-.15.08-.06-.09A.31.31,0,0,1,151.36,213.18Zm-.53,1.06v-.4l.08,0,0,0h0c0,.05,0,.12.06.16l.06,0,0,0,0,.07-.18.14h0Zm4.65,6.27h-2.92v0h2.92Zm2.57-7.08v0h.36a.46.46,0,0,1-.25.13l-.49.18,0-.1Zm0,.38c0,.12-.17.19-.29.29-.05-.07-.05-.13,0-.17Zm.59,6.7H157v0h1.73Zm1.11-7.87c.11.07-.05.09-.06.15l0,.06-.32.07-.07-.06Zm2,7.89-.31,0h-2.27v0h2.69Zm.4-6.65c-.13,0-.16-.1-.3-.1l.12-.07v-.09l.19.07Zm.09-.5-.07.17-.33-.14-.09,0a3.32,3.32,0,0,1-.42-.3,1,1,0,0,1,.43.17H162l.08-.08.49.24-.1.1Zm.2,7.09,0-.07.17-.09.16.09C162.71,220.52,162.59,220.47,162.48,220.47Zm.13-.54-.07-.16.09-.13h.05l-.08.14.08,0,.16-.14c.09.08,0,.1-.05.15l.12,0A.68.68,0,0,0,162.61,219.93Zm6.68-7.59c0,.06.1.11,0,.19l-.15-.1-.21,0,.1-.07-.12-.07v-.11H169C169.08,212.28,169.26,212.23,169.29,212.34Zm-.65-.65.12.13-.06.06a.5.5,0,0,0,.39.13l0,.07c-.1,0-.2-.09-.29,0l-.36-.21A.19.19,0,0,0,168.64,211.69Zm-1.79,1.81c0,.07,0,.12,0,.2l.2-.13c0,.06-.05.12,0,.16l.12-.07-.07.11-.33,0-.11-.18Zm.1.76,0,.15-.2-.07-.21-.22Zm3,6.25-1.09,0-1.1,0h-4.43c.21,0,7.33,0,7.72,0Zm3.25-6.45a3.1,3.1,0,0,0,.54.33h-.22l-.27-.23,0,0Zm.57,2.39c0,.09-.07.1-.13.14s-.09.1-.14.18C173.43,216.56,173.47,216.51,173.72,216.45Zm-1.78-.27c-.32-.18-.32-.18-.33-.27a.47.47,0,0,0,.09.06l0,0,.34.08Zm.22-.66v.09l-.18-.08.21-.14.33.07v0Zm.44,5h-.23v0h2.55v0Zm2.1-3.65-.18-.13.14-.11.05,0c.06,0,.06,0,.18.06l.07-.11s0,0,0,.05,0,.07,0,.11l.12,0Zm1.25,3.63h0Zm.83-5.89.1-.18.24.13C177,214.65,176.92,214.61,176.78,214.6Zm2.7,1.3-.14.07h0l0-.1h-.16l0,0,.36-.06Zm2.39-2.07v-.06l.07,0Zm.1,2.55a.11.11,0,0,1,0-.06l.05,0h0Zm.07-3.15H182v0l-.22,0a2.17,2.17,0,0,0,0-.25l.29.15s0,0,0,.06h.18Zm1.77,7.28h-1v0h1Zm-.06-5.75-.05.05v.07c-.1-.06-.21-.12-.19-.31l.33.16Zm.45-.77h-.33a.11.11,0,0,0,0,.08l-.12,0a4.08,4.08,0,0,0,.25-.33l.1.1a1.19,1.19,0,0,0,.16.08l-.09.08Zm.28.22v0s0,0-.06,0-.15-.16-.22-.25l.3.1.18.12Zm1.16-2.09-.13.17V212c0-.17-.11-.23-.32-.2v-.16l.07.05.26-.14.12.16Zm1.85.78,0,0-.06.06v-.07Zm.26,1.54h0Zm.25-1a3.22,3.22,0,0,0-.52.15l-.07,0a.08.08,0,0,1-.07,0l0-.21-.14-.1.1,0v0l.39-.28.15.31.23-.09A1.53,1.53,0,0,0,188,213.42Zm1.42-1.75-.11-.2.46-.37.08.26A.59.59,0,0,0,189.42,211.67Zm1,1.88-.06,0h0l.22-.14,0,.05Zm.7-.07s0-.08,0-.12l.09-.07Zm3.75,1.41c0-.1,0-.17,0-.24l.1,0,.16.07A.81.81,0,0,1,194.84,214.89Zm.53-.64a1.34,1.34,0,0,1-.27.07,1.09,1.09,0,0,0-.23.09l-.16.07,0-.1-.13,0s0,0,0,0,0-.05.07-.06a1.05,1.05,0,0,0,.37-.17.22.22,0,0,1,.17-.06h.16Zm.26-.13v0h.06Zm1.45-1.33.09-.09h0Zm.58-1.29.08-.05,0,.15Zm.17.15h0ZM216,215.56c0-.06,0-.13,0-.22.18.13.27.4.49.38s.21.21.35.34a1.45,1.45,0,0,0,.16.21c.07.06.22,0,.2.21l-.37-.17v0l-.35-.36-.3,0,.17-.16H216l-.17-.16Zm-1.91-3.11.37.36-.17.2-.06-.1.07-.07-.14,0,0-.07v.05l-.08,0Zm0,.63v0h0Zm-2-.74,0,0a.27.27,0,0,0,.13.21l-.21.08-.09-.09Zm-.42.57a.47.47,0,0,0,.35-.21.32.32,0,0,0,.07.23l-.21.16c-.14-.24-.29-.05-.45,0A.31.31,0,0,1,211.63,212.91Zm.45.33-.1-.05H212Zm-.12.17-.2.09,0,.18-.12-.36a1.31,1.31,0,0,1,.33-.12l-.19.21Zm-.82.41h.05l0,.19h0l-.06,0Zm-2.25-.54a.41.41,0,0,0,0,.11l-.08-.15Zm-.34.63-.05.06.37.28-.12,0v-.11l-.33-.17Zm-.62,4.07h.23l.08.05h-.37Zm.16.18h0Zm-.21-6.66.08.27a.59.59,0,0,0-.43.31l-.11-.21Zm-2.12,1.19a.49.49,0,0,0,.21,0,1.51,1.51,0,0,0,.4-.18l-.19.35v-.05c-.17-.12-.25.14-.42,0C205.75,212.79,205.76,212.74,205.76,212.69Zm-.11-.24,0,0h0Zm-2.38-1.66v-.19l.08.06.3-.16.15.19v.43c-.05.07-.1.12-.16.21,0-.12,0-.22,0-.31S203.52,210.76,203.27,210.79Zm-.37,1.66-.23.05v0l-.14,0v-.23Zm-.11,1.15h0v0Zm-.08-.63v-.12A.25.25,0,0,1,202.71,213Zm-.77,0a1.13,1.13,0,0,0,.11.11h0a.18.18,0,0,0,0,.19h-.31A.75.75,0,0,0,201.94,213Zm-.19.32c0,.16.17.21.23.27v0l0,.06-.13-.2-.2,0Zm-.05.81-.21.08v0a.29.29,0,0,1-.11-.24C201.48,214.08,201.51,214.09,201.7,214.12ZM200,214l0,0-.06,0-.1-.11.06,0Zm-.26-1,.11-.05.05.05a.28.28,0,0,1,0,.12l-.05,0-.2,0Zm-.33,0,.25.21h0l.05.1a.39.39,0,0,1-.28-.08Zm-1,7.57v0h10.13C208.37,220.61,200.7,220.63,198.44,220.59Zm14.16,0h-3.66a.45.45,0,0,1-.23,0c.79,0,1.58,0,2.38,0h2.38v0h3.22a1.67,1.67,0,0,1,.54.07Zm4.81,0c.22-.06,4.45-.08,5,0Zm4.88-5c-.11,0-.22.17-.37,0l.41-.3.12.07Zm.41,5h-.12l.12,0Zm.69-7.84.14,0v.18C223.47,212.93,223.43,212.89,223.39,212.76Zm.36,0-.06.07-.09-.06Zm0,1-.05-.16.09-.08.18,0ZM226,216.2s-.07,0-.08,0-.07-.21-.11-.34l-.21-.05v-.58c.12.18.2.35.33.32l.1.24-.07.1C225.92,216,225.93,216.08,226,216.2Zm.87-1.42-.28-.33v-.4h.09a1.84,1.84,0,0,0,.15.28,1.75,1.75,0,0,0,.16.25Zm1.27,5.68h-.4l-.12-.09h.56Zm.68,0c-.11,0-.2,0-.28,0h-.09l-.06-.08.52,0Z" transform="translate(-47.97 -38.74)"/><path class="k" d="M253.32,255.16l-93-145.26a10.05,10.05,0,0,0-16.86,0L52,255.16" transform="translate(-47.97 -38.74)"/><path class="l" d="M115.84,235.88H116a9,9,0,0,0,2.89-.24,5.7,5.7,0,0,0-2.15-.24c.88,0,1.47.13,1.47.22A6.42,6.42,0,0,1,115.84,235.88Z" transform="translate(-47.97 -38.74)"/><path class="l" d="M115.84,235.88h-.14a9,9,0,0,1-2.89-.24,5.75,5.75,0,0,1,2.15-.24c-.88,0-1.47.13-1.47.22A6.5,6.5,0,0,0,115.84,235.88Z" transform="translate(-47.97 -38.74)"/><path class="l" d="M117.94,235.94h-.15a44.8,44.8,0,0,1-6,0c-1.28-.11-1.33-.28-.24-.41-.47.12-.2.25.87.35A49.91,49.91,0,0,0,117.94,235.94Z" transform="translate(-47.97 -38.74)"/><path class="a" d="M168.38,246.47l-1.26.59c1.62-.1,1.43.33,1.27.51a1.29,1.29,0,0,1-.46.19,17.14,17.14,0,0,1-4.57.63q-12.36.53-24.73.2a59,59,0,0,1-10.2-.93c.23-.53-.56-.86-1.12-.85a57,57,0,0,1-8.75-.58c-.38,0-.86-.22-.89-.62a17.55,17.55,0,0,1,3.29-.56,36.66,36.66,0,0,1,4.06,0,219.27,219.27,0,0,0,22,.34c5.52-.32,11.15-1.11,16.65-.19C165.32,245.48,169.71,245.6,168.38,246.47Z" transform="translate(-47.97 -38.74)"/><path class="a" d="M152.8,238.47c-13-.57-24.52-3.7-26.19-3.71s-.76,2-.76,2a12.6,12.6,0,0,1,.54,3.94c.08,2.9,3.81,5.15,9.84,5.65,0,0,13.22,1.54,24.12.15a7.93,7.93,0,0,0,6.27-4.34,25.5,25.5,0,0,0,2-4.05.31.31,0,0,0-.31-.41A133.84,133.84,0,0,1,152.8,238.47Z" transform="translate(-47.97 -38.74)"/><path class="j" d="M127.21,237.22s.57.27,1.6.68,2.51,1,4.31,1.53c.9.28,1.89.57,2.94.84s2.16.53,3.32.77c.58.13,1.17.23,1.77.34s1.2.21,1.82.29,1.23.17,1.86.23l.93.09,1,.07c1.25.11,2.51.14,3.75.15.62,0,1.24,0,1.84,0l1.8-.11,1.73-.17,1.65-.21,1.55-.28c.51-.08,1-.21,1.45-.31l.67-.15.64-.18c.42-.11.82-.21,1.18-.32.74-.24,1.38-.43,1.9-.61l1.63-.61-1.6.68-1.88.69-1.18.36-.63.19-.68.17c-.46.11-.94.25-1.44.35l-1.56.31-1.66.25-1.74.19-1.81.12-1.86.05c-1.25,0-2.52,0-3.78-.13l-1-.07-.95-.11c-.63-.06-1.25-.15-1.87-.24s-1.22-.2-1.83-.3-1.19-.22-1.77-.36c-1.17-.24-2.28-.53-3.33-.83s-2-.6-2.93-.91c-1.8-.6-3.26-1.22-4.27-1.67S127.21,237.22,127.21,237.22Z" transform="translate(-47.97 -38.74)"/><path class="j" d="M139.27,246l-1.72-.17c-.61-.07-1.26-.12-1.92-.21a19.54,19.54,0,0,1-4.06-1,10.44,10.44,0,0,1-3-1.6c.22.12.46.24.73.36s.6.27.93.4.7.26,1.07.39.75.26,1.15.36l.6.16.61.15c.4.1.81.17,1.22.25s.8.13,1.19.2.76.09,1.12.13.69.07,1,.09l.85.06.66,0,.57,0-.57,0-.66,0c-.25,0-.53-.05-.84-.08s-.65,0-1-.11-.72-.09-1.11-.16-.78-.13-1.18-.22-.8-.17-1.21-.28l-.6-.16-.59-.18c-.39-.11-.77-.25-1.13-.38s-.72-.26-1-.41-.64-.28-.92-.41c-.55-.28-1-.53-1.3-.72l-.44-.3c-.06-.07-.11-.15-.16-.22l.49.28c.21.13.46.25.73.39s.57.27.89.4.66.27,1,.4.73.25,1.1.38l1.16.32c.39.08.78.19,1.17.26l1.15.21,1.07.15,1,.1c.3,0,.58.06.82.06l.64,0,.55,0-.55,0-.64-.05c-.24,0-.51,0-.81-.08l-1-.12-1.07-.18c-.37-.06-.74-.15-1.13-.23s-.77-.2-1.16-.29l-1.14-.35c-.37-.13-.74-.25-1.09-.39l-1-.42c-.32-.14-.6-.29-.87-.42s-.51-.27-.71-.4-.39-.24-.53-.33l-.33-.23-.07-.06a1.17,1.17,0,0,1-.05-.11l.1.06c.14.09.31.2.52.31s.44.24.69.37.54.27.84.39.62.26,1,.39.69.24,1,.36l1.1.32c.37.09.73.19,1.1.26l1.08.21,1,.16.91.11c.29,0,.55.06.78.07l.6,0,.52,0-.52,0-.6-.05-.77-.09-.91-.13-1-.18-1.07-.24c-.36-.08-.73-.2-1.09-.29l-1.08-.34c-.35-.14-.7-.25-1-.39s-.65-.27-.94-.41-.57-.27-.82-.4-.48-.26-.67-.38l-.5-.32-.31-.21-.06-.05a1.1,1.1,0,0,1,0-.18l.16.11.49.29.65.35c.24.12.5.26.79.38s.58.25.9.37.64.23,1,.35l1,.32,1,.26,1,.21,1,.17.86.11c.27,0,.51.07.73.08l.57,0,.49,0-.49-.05-.56-.06c-.22,0-.46-.06-.73-.1l-.85-.13-.95-.19-1-.24-1-.29-1-.34c-.32-.13-.65-.24-1-.38s-.61-.25-.88-.39-.53-.27-.77-.39l-.63-.36-.47-.3-.28-.21-.06,0v-.05s0-.09,0-.14l.15.1c.25.16.62.37,1.07.61.23.11.47.24.74.36l.84.36.92.34,1,.31,1,.26.95.22.9.17.81.12c.5.08.92.11,1.21.14l.46,0-.46-.06c-.29,0-.71-.08-1.21-.18l-.8-.14-.89-.19-.94-.25-1-.29-.95-.33c-.3-.13-.61-.24-.89-.37s-.57-.25-.83-.38-.49-.25-.71-.37c-.44-.25-.79-.47-1-.63l-.27-.19-.07-.05a1.49,1.49,0,0,0,0-.21l.13.08c.23.15.58.36,1,.58l.69.35.79.35c.55.23,1.15.44,1.75.64l.92.27.89.22.84.18.75.13c.47.08.87.12,1.14.16l.44.05-.44-.07c-.27,0-.66-.09-1.13-.19l-.75-.15-.83-.2-.88-.25-.9-.29c-.59-.22-1.18-.45-1.72-.7-.27-.12-.52-.24-.76-.37a5.94,5.94,0,0,1-.67-.36c-.41-.23-.74-.44-1-.6l-.25-.18-.08-.06a1,1,0,0,0,0-.16l.1.07c.22.14.54.33.93.55l.64.32.74.34c.51.22,1.06.43,1.62.63l.85.26.83.23.78.18c.24.06.48.1.7.14.44.09.8.13,1.06.17l.4.06-.4-.07c-.25-.05-.62-.1-1.05-.21-.22-.05-.45-.09-.7-.16l-.77-.2-.81-.26-.83-.29c-.55-.21-1.1-.44-1.6-.68-.25-.11-.49-.23-.71-.35s-.43-.24-.62-.34c-.38-.23-.69-.43-.9-.57l-.24-.17-.08-.07h0l0-.16.07.05c.21.13.5.31.87.51s.8.42,1.27.63c.24.11.48.22.74.32s.51.2.77.3l.78.26.76.23.72.19.66.15.55.12.43.07.37.07-.37-.08-.42-.09c-.17,0-.35-.09-.55-.14l-.65-.17-.71-.21-.75-.26-.77-.29-.75-.32c-.25-.11-.49-.22-.72-.34-.46-.22-.88-.46-1.23-.66s-.64-.4-.84-.54l-.32-.22,0-.13a9.16,9.16,0,0,0,.84.51,18.92,18.92,0,0,0,2.56,1.18c.48.19,1,.35,1.42.5l.66.19c.21.07.42.11.6.16l.51.13.4.08.34.07-.34-.08-.39-.1-.5-.15c-.19,0-.39-.1-.59-.17l-.66-.22c-.45-.17-.92-.35-1.39-.55a21.19,21.19,0,0,1-2.49-1.26c-.54-.33-.95-.62-1.08-.72a5.52,5.52,0,0,0-.17-.53,6.35,6.35,0,0,0-.27-.68c-.08-.15-.12-.23-.13-.22s0,.08.1.23.12.4.2.7a14.42,14.42,0,0,1,.4,2.54c0,.26,0,.54,0,.83a3.1,3.1,0,0,0,1.09,2.63,7.57,7.57,0,0,0,1.71,1.22,12,12,0,0,0,2,.85,20,20,0,0,0,4.12.88c.67.08,1.32.12,1.93.17l1.73.14,3.56.28Z" transform="translate(-47.97 -38.74)"/><path class="a" d="M159.64,238.56a5.89,5.89,0,0,1,.19-2.13,9.55,9.55,0,0,0,.33-1.16,4.71,4.71,0,0,0,0-1.76,3.81,3.81,0,0,0-1.43-2.78l-.29-.68h0a2.08,2.08,0,0,0,.29-.67c1.41.28,1.89-.2,1.58-.74s-1.73-.65-1.73-.65a11.72,11.72,0,0,0-.17-1.6.92.92,0,0,0-.33-.58,3.34,3.34,0,0,0-2.83-.29,1.19,1.19,0,0,0-.66.48,3.55,3.55,0,0,0-.43,1.57s-1.61,0-1.72.61c-.09.43.87.42,1.76.38a5.63,5.63,0,0,0,.91,3,8.57,8.57,0,0,0-.67.64.39.39,0,0,1-.48.08c-.39-.19-.4-.93-.4-.93s0-.65-.31-.88a1.1,1.1,0,0,0-.81-.2c-.82-.94-1.29-.22-1.29-.22-1,1.41.13,2.17.13,2.17s-1,3.15.44,5c0,0,.37.48,1.31-.26l-.37,2.28Z" transform="translate(-47.97 -38.74)"/><path class="a" d="M152.83,230.74,150,226.6c-.42-.63-.88-1.3-1.37-2s-1-1.45-1.59-2.21-1.19-1.51-1.86-2.25c-.32-.38-.68-.74-1-1.1s-.71-.72-1.1-1.05a20.08,20.08,0,0,0-2.38-1.86c-.43-.27-.84-.54-1.28-.76-.22-.11-.43-.24-.66-.34l-.66-.29c-.21-.1-.44-.17-.66-.25l-.67-.23-.65-.16-.32-.08-.33-.07a9.11,9.11,0,0,0-2.48-.09,8.38,8.38,0,0,0-2,.47,6.84,6.84,0,0,0-1.44.74,6.65,6.65,0,0,0-.82.65l-.25.26a.16.16,0,0,0,0,.23.17.17,0,0,0,.24,0l.26-.25c.12-.11.27-.24.46-.39l.05.21c0,.05,0,.14.06.23s.19.14.24.1h0c.05-.06,0-.17-.05-.25l-.12-.09a.13.13,0,0,0-.08,0l-.05-.21.25-.18a6.82,6.82,0,0,1,1.38-.68,7.69,7.69,0,0,1,1.95-.42,7,7,0,0,1,1,0v.15a.2.2,0,0,0,0,.23c.05.12.13.19.19.16h0c.06,0,.06-.15,0-.24a.4.4,0,0,0-.07-.13l-.07,0v-.14a8.09,8.09,0,0,1,1.27.14l.3.06.32.09.65.17.63.23a5.5,5.5,0,0,1,.63.25l.63.29a.8.8,0,0,1,.16.08l-.05.11c-.06,0-.09.11-.09.23s.07.22.14.22h0c.07,0,.11-.12.1-.23a.37.37,0,0,0,0-.15.12.12,0,0,0-.05-.05l0-.09.41.22c.42.22.82.49,1.23.75a21.17,21.17,0,0,1,2.3,1.85l.15.14-.11.14c-.07,0-.13.1-.16.22s0,.27.08.28h0c.08,0,.15-.11.18-.23a.48.48,0,0,0,0-.17.15.15,0,0,0,0-.08l.09-.12c.29.28.56.57.85.85s.67.72,1,1.09c.64.74,1.23,1.5,1.79,2.24a.86.86,0,0,0,.07.1l-.13.12c-.09,0-.18.07-.25.22s-.05.3,0,.34h0c.1,0,.21-.09.26-.21a.51.51,0,0,0,0-.2.15.15,0,0,0,0-.1l.11-.1c.51.7,1,1.38,1.43,2l1.33,2,.13.19-.25.16c-.1,0-.23.06-.32.21s-.11.35,0,.41h0c.11,0,.25-.08.33-.21a.61.61,0,0,0,.09-.23.22.22,0,0,0,0-.12l.23-.14,2.57,3.9h0a.4.4,0,0,0,.54.1A.39.39,0,0,0,152.83,230.74ZM129.5,215.81h.05a.22.22,0,0,1,.09.08.22.22,0,0,1,.06.1s0,.05,0,.06h0a.32.32,0,0,1-.09-.08.22.22,0,0,1-.06-.1S129.49,215.82,129.5,215.81Zm4.63-1.36a.17.17,0,0,1,.06.1.3.3,0,0,1,0,.11s0,.05,0,.05h0s0,0,0,0a.44.44,0,0,1-.06-.1.52.52,0,0,1,0-.11.06.06,0,0,1,0,0Zm4.62,1.42a.18.18,0,0,1,0,.11s0,.05,0,.05h0s0,0,0,0a.21.21,0,0,1,0-.12.31.31,0,0,1,0-.11s0,0,0,0,0,0,0,0A.21.21,0,0,1,138.75,215.87Zm4,3.07a.33.33,0,0,1,0,.12s0,0-.05,0h0s0,0,0-.06a.28.28,0,0,1,0-.13.87.87,0,0,1,.05-.12s0,0,0,0,0,0,0,0A.38.38,0,0,1,142.79,218.94Zm3.68,4.35a.48.48,0,0,1-.09.13l-.06,0h0a.12.12,0,0,1,0-.07.37.37,0,0,1,0-.16.49.49,0,0,1,.08-.13s.06,0,.07,0,0,0,0,.06A.5.5,0,0,1,146.47,223.29Zm2.76,4.41a.43.43,0,0,1-.12.14.13.13,0,0,1-.08,0h0s0,0,0-.09a.47.47,0,0,1,.07-.17.43.43,0,0,1,.12-.14s.07,0,.08,0,0,0,0,.08A.51.51,0,0,1,149.23,227.7Z" transform="translate(-47.97 -38.74)"/><path class="a" d="M128.61,216l.25-.24a7.63,7.63,0,0,1,.77-.61,6.93,6.93,0,0,1,3.26-1.16,9.34,9.34,0,0,1,2.34.08,12.6,12.6,0,0,1,2.51.66,14.56,14.56,0,0,1,2.51,1.23,20.87,20.87,0,0,1,2.32,1.7,24.49,24.49,0,0,1,2.07,2c.65.69,1.24,1.41,1.8,2.12,1.12,1.43,2.07,2.82,2.89,4l2.68,4-2.73-4c-.81-1.19-1.77-2.58-2.89-4-.56-.71-1.16-1.43-1.81-2.12a25.93,25.93,0,0,0-2.07-2,20.19,20.19,0,0,0-2.31-1.7,14.3,14.3,0,0,0-2.48-1.23,11,11,0,0,0-4.82-.76,7.25,7.25,0,0,0-1.91.44,6.5,6.5,0,0,0-1.35.68c-.35.24-.6.46-.77.6Z" transform="translate(-47.97 -38.74)"/><path class="a" d="M150.86,230.54c-.75-1.21-1.48-2.43-2.24-3.63l-2.27-3.6h0l-3.69-4.38h0l-4-3h0l-4.55-1.28h0a9.86,9.86,0,0,0-2.35.38l-.57.18-.27.11c-.09,0-.19.07-.28.12s-.35.16-.53.26-.33.21-.5.31h0L116,235.58l13.57-19.68h0c.17-.1.33-.22.51-.32s.36-.19.54-.27l.28-.12.28-.11c.19-.06.38-.13.58-.18a9.4,9.4,0,0,1,1.17-.26,8.13,8.13,0,0,1,1.2-.12h0l4.55,1.28h0l4,3h0l3.68,4.38h0l2.27,3.61c.76,1.2,1.49,2.41,2.24,3.62Z" transform="translate(-47.97 -38.74)"/><path class="a" d="M154,233.56a3.15,3.15,0,0,1-.35.38l0,0a2.67,2.67,0,0,1-.18-.23,3.06,3.06,0,0,1-.25-.36s.08.21.17.4a2.14,2.14,0,0,0,.16.27l0,0a8.51,8.51,0,0,1-.93.64,3.55,3.55,0,0,0,1.44-.75c.49-.46.74-1.1,1.2-1.57a7.58,7.58,0,0,1,2.56-1.35,4.78,4.78,0,0,0-2.77,1.05A9.18,9.18,0,0,0,154,233.56Z" transform="translate(-47.97 -38.74)"/><path class="a" d="M153.21,238.19a6.7,6.7,0,0,0-.05.79,6.9,6.9,0,0,0,.15,1.46c.05.2.09.36.13.47l.07.18v-.19c0-.11,0-.28,0-.48s0-.43,0-.67,0-.51,0-.77c0-.53,0-1,0-1.45s0-.66,0-.66a4,4,0,0,0-.2.64C153.28,237.71,153.24,237.94,153.21,238.19Z" transform="translate(-47.97 -38.74)"/><path class="a" d="M151.81,236.65c0-.09-.05-.19-.09-.3a3.59,3.59,0,0,1-.08-.35c0-.13,0-.26-.07-.4a3,3,0,0,1-.06-.43c0-.14,0-.29,0-.44s0-.3,0-.44v-.44c0-.28,0-.54,0-.77,0-.45.09-.75.09-.75a3.92,3.92,0,0,0-.23.73,6.48,6.48,0,0,0-.14,1.68,5.14,5.14,0,0,0,.12.9,3.84,3.84,0,0,0,.11.4c0,.13.08.25.13.35l.13.29.13.21a1,1,0,0,0,.11.18l-.07-.2Z" transform="translate(-47.97 -38.74)"/><path class="a" d="M154.8,230.3a1.15,1.15,0,0,0,.1.23,2.84,2.84,0,0,0,.21.39,2.7,2.7,0,0,0,.26.35s0-.05,0-.12l-.1-.29c-.08-.25-.19-.56-.3-.88l-.27-.89-.13-.41a2,2,0,0,0,0,.44,3.52,3.52,0,0,0,.18.93A2.5,2.5,0,0,0,154.8,230.3Z" transform="translate(-47.97 -38.74)"/><path class="a" d="M154.87,227.3c0-.09,0-.18,0-.28s0-.22,0-.33a2.47,2.47,0,0,1,.11-.6,2.6,2.6,0,0,1,.11-.27,1.63,1.63,0,0,0-.21.21,2.29,2.29,0,0,0-.45,1.27.88.88,0,0,0,0,.22v.09l.48,0A2.56,2.56,0,0,1,154.87,227.3Z" transform="translate(-47.97 -38.74)"/><path class="a" d="M159.33,229.28a4,4,0,0,1-.78-.21,4.8,4.8,0,0,1-.49-.21l-.55-.26a6.61,6.61,0,0,0-1.29-.35,6,6,0,0,0-1.33-.05l-.61.07-.53,0a5.92,5.92,0,0,1-.81,0,.78.78,0,0,1-.22,0l-.08,0,.07,0,.22.07a4.58,4.58,0,0,0,.82,0c.34,0,.73,0,1.15-.06a5.73,5.73,0,0,1,1.3,0,6.46,6.46,0,0,1,1.26.32,4,4,0,0,1,.55.23,4.85,4.85,0,0,0,.51.2,3.44,3.44,0,0,0,.81.15h.31A2.33,2.33,0,0,1,159.33,229.28Z" transform="translate(-47.97 -38.74)"/><path class="a" d="M151.26,229.94l.46.42-.36-.49Z" transform="translate(-47.97 -38.74)"/><path class="g" d="M688.78,182.88l-47.53,73s28.25,7.13,49.53-9.6c16.19-12.74,21.61-26,21.61-26Z" transform="translate(-47.97 -38.74)"/><path class="m" d="M688.81,182.83l47.36,73.65s-27.46,6.79-49.42-10c-16.71-12.79-22.3-26.1-22.3-26.1Z" transform="translate(-47.97 -38.74)"/><path class="j" d="M688.57,203.28l-10.4,19.07a1.31,1.31,0,0,0,1.14,1.93H700.1a1.31,1.31,0,0,0,1.15-1.93l-10.4-19.07A1.3,1.3,0,0,0,688.57,203.28Z" transform="translate(-47.97 -38.74)"/></svg>